<svg id="terraform_logo" xmlns="http://www.w3.org/2000/svg" width="250.03" height="60.15" viewBox="0 0 250.03 60.15">
  <path id="Path_7452" data-name="Path 7452" d="M77.35,7.86V4.63h-3V7.86H72.89V.11H74.4V3.36h3V.11h1.51V7.86Zm7,0h-1.2l-.11-.38a3.28,3.28,0,0,1-1.7.52c-1.06,0-1.52-.7-1.52-1.66,0-1.14.51-1.57,1.7-1.57h1.4V4.15c0-.62-.18-.84-1.11-.84a8.46,8.46,0,0,0-1.61.17L80,2.42a7.89,7.89,0,0,1,2-.26c1.83,0,2.37.62,2.37,2ZM82.92,5.75H81.84c-.48,0-.61.13-.61.55s.13.56.59.56a2.37,2.37,0,0,0,1.1-.29ZM87.43,8a7.12,7.12,0,0,1-2-.32l.2-1.07a6.77,6.77,0,0,0,1.73.24c.65,0,.74-.14.74-.56s-.07-.52-1-.73c-1.42-.33-1.59-.68-1.59-1.76S86,2.15,87.67,2.15a8,8,0,0,1,1.75.2l-.14,1.11a10.66,10.66,0,0,0-1.6-.16c-.63,0-.74.14-.74.48s0,.48.82.68c1.63.41,1.78.62,1.78,1.77S89.19,8,87.43,8Zm6.68-.11V4c0-.3-.13-.45-.47-.45A4.14,4.14,0,0,0,92.12,4V7.86H90.66V0l1.46.22V2.69a5.31,5.31,0,0,1,2.13-.54c1,0,1.32.65,1.32,1.65V7.86Zm2.68-6.38V.11h1.46V1.48Zm0,6.38V2.27h1.46V7.86Zm2.62-5.54c0-1.4.85-2.22,2.83-2.22a9.37,9.37,0,0,1,2.16.25l-.17,1.25a12.21,12.21,0,0,0-1.95-.2c-1,0-1.37.34-1.37,1.16V5.5c0,.81.33,1.16,1.37,1.16a12.21,12.21,0,0,0,1.95-.2l.17,1.25a9.37,9.37,0,0,1-2.16.25c-2,0-2.83-.81-2.83-2.22ZM107.63,8c-2,0-2.53-1.06-2.53-2.2V4.36c0-1.15.54-2.2,2.53-2.2s2.53,1.06,2.53,2.2V5.77C110.17,6.92,109.63,8,107.63,8Zm0-4.63c-.78,0-1.08.33-1.08,1v1.5c0,.63.3,1,1.08,1s1.08-.33,1.08-1V4.31c0-.63-.3-.96-1.08-.96Zm6.64.09a11.569,11.569,0,0,0-1.54.81v3.6h-1.46V2.27h1.23l.1.62a6.63,6.63,0,0,1,1.53-.73ZM120.1,6a1.73,1.73,0,0,1-1.92,2,8.36,8.36,0,0,1-1.55-.16V10.1l-1.46.22v-8h1.16l.14.47a3.15,3.15,0,0,1,1.84-.59c1.17,0,1.79.67,1.79,1.94Zm-3.48.63a6.72,6.72,0,0,0,1.29.15c.53,0,.73-.24.73-.75v-2c0-.46-.18-.71-.72-.71a2.11,2.11,0,0,0-1.3.51ZM81.78,19.54H72.89V14.23H96.7v5.31H87.8V46.07h-6Z"/>
  <path id="Path_7453" data-name="Path 7453" d="M102.19,41.77a24.39,24.39,0,0,0,7.12-1.1l.91,4.4a25,25,0,0,1-8.56,1.48c-7.31,0-9.85-3.39-9.85-9V31.4c0-4.92,2.2-9.08,9.66-9.08s9.13,4.35,9.13,9.37v5h-13v1.2c.05,2.78,1.05,3.88,4.59,3.88ZM97.65,32h7.41V30.82c0-2.2-.67-3.73-3.54-3.73s-3.87,1.53-3.87,3.73Zm28.54-4.33A45.65,45.65,0,0,0,120,31.06v15h-5.83V22.79h4.92l.38,2.58a26.09,26.09,0,0,1,6.12-3.06Zm14.24,0a45.648,45.648,0,0,0-6.17,3.39v15h-5.83V22.79h4.92l.38,2.58a26.09,26.09,0,0,1,6.12-3.06Zm19.51,18.4h-4.78l-.43-1.58a12.73,12.73,0,0,1-6.93,2.06c-4.25,0-6.07-2.92-6.07-6.93,0-4.73,2.06-6.55,6.79-6.55h5.59V30.63c0-2.58-.72-3.49-4.45-3.49a32.53,32.53,0,0,0-6.45.72l-.72-4.45a30.38,30.38,0,0,1,8-1.1c7.31,0,9.47,2.58,9.47,8.41Zm-5.83-8.8h-4.3c-1.91,0-2.44.53-2.44,2.29s.53,2.34,2.34,2.34a9.18,9.18,0,0,0,4.4-1.2Zm23.75-19.79a17.11,17.11,0,0,0-3.35-.38c-2.29,0-2.63,1-2.63,2.77v2.92h5.93l-.33,4.64h-5.59V46.07h-5.83V27.43h-3.73V22.79h3.73V19.54c0-4.83,2.25-7.22,7.41-7.22a18.47,18.47,0,0,1,5,.67Zm11.38,29.07c-8,0-10.13-4.4-10.13-9.18V31.49c0-4.78,2.15-9.18,10.13-9.18s10.13,4.4,10.13,9.18v5.88C199.38,42.15,197.22,46.55,189.24,46.55Zm0-19.27c-3.11,0-4.3,1.39-4.3,4v6.26c0,2.63,1.2,4,4.3,4s4.3-1.39,4.3-4V31.3C193.54,28.67,192.35,27.28,189.24,27.28Zm25.14.39a45.649,45.649,0,0,0-6.17,3.39v15h-5.83V22.79h4.92l.38,2.58a26.081,26.081,0,0,1,6.12-3.06Zm16.02,18.4V29.82c0-1.24-.53-1.86-1.86-1.86a16.08,16.08,0,0,0-6.07,2V46.07h-5.83V22.79h4.45l.57,2A23.32,23.32,0,0,1,231,22.31a4.42,4.42,0,0,1,4.4,2.49,22.83,22.83,0,0,1,9.37-2.49c3.87,0,5.26,2.72,5.26,6.88V46.07H244.2V29.82c0-1.24-.53-1.86-1.86-1.86a15.43,15.43,0,0,0-6.07,2V46.07Z"/>
  <path id="Path_7454" data-name="Path 7454" d="M36.4,20.2V39.13l16.4-9.46V10.72Z" fill="#4040b2"/>
  <path id="Path_7455" data-name="Path 7455" d="M18.2,10.72,34.6,20.2V39.13L18.2,29.66V10.72Z" fill="#5c4ee5"/>
  <path id="Path_7456" data-name="Path 7456" d="M0,.15V19.09l16.4,9.47V9.62ZM18.2,50.68l16.4,9.47V41.21L18.2,31.74V50.68Z" fill="#5c4ee5"/>
</svg>
