<svg xmlns="http://www.w3.org/2000/svg" width="17.316" height="11.349" viewBox="0 0 17.316 11.349"><g transform="translate(0.147 -89.564)"><g transform="translate(0 89.975)"><g transform="translate(0 0)"><path d="M.5,95.239c0,.33-.33,1,0,1h14l-3,3c-.115.115,0,.847,0,1s-.115-.115,0,0a.8.8,0,0,0,1,0l4-4a.833.833,0,0,0,0-1l-4-5a.8.8,0,0,0-1,0,.8.8,0,0,0,0,1l3,4H.5C.17,95.235.5,94.909.5,95.239Z" transform="translate(0 -89.975)" fill="#fff"/><path d="M12,89.564a1.206,1.206,0,0,1,.854.321l.02.02,4,5.006a1.317,1.317,0,0,1-.024,1.682l-4,4a1.206,1.206,0,0,1-.854.321,1.323,1.323,0,0,1-.585-.131.56.56,0,0,1-.466-.561.514.514,0,0,1,.033-.182c-.054-.561-.071-.92.164-1.155l2.146-2.146H.5A.625.625,0,0,1,0,96.5a1.1,1.1,0,0,1-.054-.977l.011-.044a.555.555,0,0,1-.1-.319A.57.57,0,0,1,0,94.781V94.74H.042a.571.571,0,0,1,.384-.148.555.555,0,0,1,.377.148H13.5l-2.383-3.177a1.222,1.222,0,0,1-.292-.823A1.1,1.1,0,0,1,12,89.564Zm.141,1.026A.34.34,0,0,0,12,90.564a.324.324,0,0,0-.146.029.378.378,0,0,0,0,.295l.022.022L15.5,95.739h.207L11.949,99.5c0,.113.015.3.026.415H12a.309.309,0,0,0,.149-.031l3.99-3.99a.437.437,0,0,0,0-.308l-.012-.013Z" transform="translate(0 -89.975)" fill="#fff"/></g></g></g></svg>