<svg xmlns="http://www.w3.org/2000/svg" width="160.109" height="58.148" viewBox="0 0 160.109 58.148"><g transform="translate(0 -0.031)"><g transform="translate(0 5.389)"><path d="M32.09,36.186a22.349,22.349,0,0,1-.944-2.109,9.694,9.694,0,0,1-.315-2.612h0V22.022a9.726,9.726,0,0,0-2.487-7.365,10.733,10.733,0,0,0-7.68-2.392,17.783,17.783,0,0,0-4.564.567,16.43,16.43,0,0,0-3.808,1.416,2.3,2.3,0,0,0-.818.63,1.951,1.951,0,0,0-.189,1.007v1.448c0,.6.189.913.6.913h.472l1.133-.441A26.187,26.187,0,0,1,16.636,16.8a14.132,14.132,0,0,1,3.148-.378,6.736,6.736,0,0,1,4.784,1.353,6.484,6.484,0,0,1,1.353,4.69V24.6c-1.165-.283-2.266-.5-3.368-.661a26.816,26.816,0,0,0-3.148-.22,10.513,10.513,0,0,0-7.113,2.266A7.46,7.46,0,0,0,9.617,32a7.46,7.46,0,0,0,2.172,5.634,7.963,7.963,0,0,0,5.886,2.2A10.89,10.89,0,0,0,26.3,35.808a17.341,17.341,0,0,0,.913,1.731,8.183,8.183,0,0,0,1.039,1.353,1.259,1.259,0,0,0,.881.409,1.2,1.2,0,0,0,.755-.252l1.857-1.228a1.007,1.007,0,0,0,.346-1.542Zm-6.075-7.113a9.82,9.82,0,0,1-.283,2.549,4.784,4.784,0,0,1-.85,1.92,6.83,6.83,0,0,1-2.77,1.889,9.631,9.631,0,0,1-3.148.5,4.344,4.344,0,0,1-2.738-7.554,6.862,6.862,0,0,1,4.344-1.133,16.543,16.543,0,0,1,2.77.157c.944.157,1.826.315,2.675.5Zm14.6,8.561a2.455,2.455,0,0,0,.6,1.165,1.826,1.826,0,0,0,1.133.283h2.518a1.857,1.857,0,0,0,1.165-.283,2.329,2.329,0,0,0,.567-1.2l4.5-18.885L55.665,37.6a1.92,1.92,0,0,0,.535,1.165,1.763,1.763,0,0,0,1.2.315h2.518a1.763,1.763,0,0,0,1.1-.315,2.266,2.266,0,0,0,.629-1.133L68.947,15a2.046,2.046,0,0,0,.189-.724,2.8,2.8,0,0,0,0-.472.629.629,0,0,0-.724-.724H65.674a2.14,2.14,0,0,0-1.133.283,2.644,2.644,0,0,0-.567,1.133l-5.1,19.641-4.69-19.483a2.014,2.014,0,0,0-.535-1.133,1.951,1.951,0,0,0-1.2-.283H50.062a1.479,1.479,0,0,0-1.731,1.416L43.767,33.92,38.889,14.657a2.518,2.518,0,0,0-.567-1.133,1.794,1.794,0,0,0-1.165-.283H34.325c-.472,0-.692.252-.692.724a4.029,4.029,0,0,0,.252,1.165Zm31.475.535a12.811,12.811,0,0,0,3.368,1.165,19.767,19.767,0,0,0,4.5.535,14.1,14.1,0,0,0,4.218-.63A9,9,0,0,0,87.329,37.6a7.712,7.712,0,0,0,2.14-2.581,7.4,7.4,0,0,0,.755-3.4,6.578,6.578,0,0,0-1.353-4.092,8.845,8.845,0,0,0-4.186-2.8L80.53,23.407a8.687,8.687,0,0,1-3.148-1.637,2.8,2.8,0,0,1-.881-2.077,2.864,2.864,0,0,1,1.385-2.612,7.837,7.837,0,0,1,3.651-.818,13.062,13.062,0,0,1,5.634,1.165,3.4,3.4,0,0,0,1.1.346c.441,0,.692-.315.692-.944V15.444a1.416,1.416,0,0,0-.283-.944,2.392,2.392,0,0,0-.881-.755,8.183,8.183,0,0,0-1.228-.535,9.4,9.4,0,0,1-1.668-.441l-1.889-.346H81.034a12.842,12.842,0,0,0-3.683.472A9.6,9.6,0,0,0,74.2,14.436a7.334,7.334,0,0,0-2.109,2.392,6.452,6.452,0,0,0-.787,3.148,7.145,7.145,0,0,0,1.448,4.249,9.065,9.065,0,0,0,4.69,2.99l4.249,1.322a6.673,6.673,0,0,1,2.959,1.511,2.864,2.864,0,0,1,.818,2.046,3.148,3.148,0,0,1-1.542,2.8,8.058,8.058,0,0,1-4.281.944,16.651,16.651,0,0,1-3.494-.346,15.266,15.266,0,0,1-3.148-1.007l-.724-.315h-.535c-.441,0-.692.315-.692.913v1.605a1.951,1.951,0,0,0,.189.818,2.172,2.172,0,0,0,1.007.661ZM84.118,51.892a87.218,87.218,0,0,1-33.112,6.83A88.131,88.131,0,0,1,7.382,47.108c-1.07-.63-1.889.472-1.007,1.29A64.587,64.587,0,0,0,50.062,65.017a63.2,63.2,0,0,0,35.693-10.89c1.511-1.2.126-2.959-1.479-2.235Zm9.443-5.508c-1.039-1.29-10.1-2.424-15.738,1.448-.85.63-.692,1.448.22,1.322,3.148-.378,10.072-1.2,11.3.378s-1.385,8.089-2.549,11.016c-.346.85.409,1.228,1.2.535,5.508-4.344,6.862-13.377,5.791-14.7Z" transform="translate(-6.001 -12.228)" fill="#c1c1c1"/></g><text transform="translate(103.109 16.031)" fill="#c1c1c1" font-size="15" font-family="SegoeUI, Segoe UI"><tspan x="0" y="0">Partner</tspan><tspan x="0" y="23">Network</tspan></text></g></svg>