<svg xmlns="http://www.w3.org/2000/svg" width="152" height="65" viewBox="0 0 152 65"><g transform="translate(0 0)"><text transform="translate(57 16)" fill="#c1c1c1" font-size="15" font-family="SegoeUI, Segoe UI"><tspan x="0" y="0">Established in </tspan><tspan font-size="39" font-family="SegoeUI-Bold, Segoe UI" font-weight="700"><tspan x="0" y="39">2011</tspan></tspan></text><g transform="translate(0 4.172)"><path d="M272.984,107.218h4.8a1.043,1.043,0,0,0,1.043-1.043v-4.812a1.043,1.043,0,0,0-1.043-1.043h-4.8a1.043,1.043,0,0,0-1.043,1.043v4.812A1.043,1.043,0,0,0,272.984,107.218Zm1.043-4.812h2.719v2.727h-2.719Z" transform="translate(-247.549 -89.858)" fill="#c1c1c1"/><path d="M182.255,107.218h4.8a1.043,1.043,0,0,0,1.043-1.043v-4.812a1.043,1.043,0,0,0-1.043-1.043h-4.8a1.043,1.043,0,0,0-1.043,1.043v4.812A1.043,1.043,0,0,0,182.255,107.218Zm1.043-4.812h2.718v2.727H183.3Z" transform="translate(-166.282 -89.858)" fill="#c1c1c1"/><path d="M272.984,208.8h4.8a1.043,1.043,0,0,0,1.043-1.043v-4.812a1.043,1.043,0,0,0-1.043-1.043h-4.8a1.043,1.043,0,0,0-1.043,1.043v4.812A1.043,1.043,0,0,0,272.984,208.8Zm1.043-4.812h2.719v2.726h-2.719Z" transform="translate(-247.549 -180.844)" fill="#c1c1c1"/><path d="M182.255,208.8h4.8a1.043,1.043,0,0,0,1.043-1.043v-4.812a1.043,1.043,0,0,0-1.043-1.043h-4.8a1.043,1.043,0,0,0-1.043,1.043v4.812A1.043,1.043,0,0,0,182.255,208.8Zm1.043-4.812h2.718v2.726H183.3Z" transform="translate(-166.282 -180.844)" fill="#c1c1c1"/><path d="M272.984,310.375h4.8a1.043,1.043,0,0,0,1.043-1.043V304.52a1.043,1.043,0,0,0-1.043-1.043h-4.8a1.043,1.043,0,0,0-1.043,1.043v4.812A1.043,1.043,0,0,0,272.984,310.375Zm1.043-4.812h2.719v2.727h-2.719Z" transform="translate(-247.549 -271.828)" fill="#c1c1c1"/><path d="M187.059,310.375a1.043,1.043,0,0,0,1.043-1.043V304.52a1.043,1.043,0,0,0-1.043-1.043h-4.8a1.043,1.043,0,0,0-1.043,1.043v4.812a1.043,1.043,0,0,0,1.043,1.043Zm-3.761-4.812h2.718v2.727H183.3Z" transform="translate(-166.282 -271.828)" fill="#c1c1c1"/><path d="M82.467,51.31H81.5V19.81a1.043,1.043,0,0,0-1.043-1.043H73.66V5.836a1.043,1.043,0,0,0-1.043-1.043H70.395V1.043A1.043,1.043,0,0,0,69.352,0H52.961a1.043,1.043,0,0,0-1.043,1.043v3.75H49.7a1.043,1.043,0,0,0-1.043,1.043V25.907H42.931a1.043,1.043,0,0,0-1.043,1.043V51.31h-2.8a1.043,1.043,0,1,0,0,2.086H82.467a1.043,1.043,0,0,0,0-2.086ZM54,2.086H68.309V4.793H54ZM43.974,27.993h4.679V51.31H43.974ZM50.739,6.879H71.574V51.31H66.382V44.43a1.043,1.043,0,0,0-1.043-1.043H56.973A1.043,1.043,0,0,0,55.93,44.43V51.31H50.739ZM58.016,51.31V45.472H64.3V51.31Zm15.643,0V20.852h5.752V51.31Z" transform="translate(-38.05)" fill="#c1c1c1"/></g></g></svg>