<svg xmlns="http://www.w3.org/2000/svg" width="44" height="72" viewBox="0 0 44 72"><g transform="translate(-381 -695)"><g transform="translate(250.92 567.538)"><g transform="translate(130.119 128.462)"><g transform="translate(0 0)"><path d="M153.58,127.962h-3c-11.4.74-20,10.417-20,22v27c0,12.064,8.936,22,21,22a22.111,22.111,0,0,0,22-22v-27C173.58,138.379,164.979,128.7,153.58,127.962Zm17,49a19,19,0,0,1-38,0v-27a19,19,0,0,1,38,0Z" transform="translate(-130.119 -128.462)" fill="#fff"/><path d="M150.564,127.462h3.049a21.475,21.475,0,0,1,14.613,7.1,22.91,22.91,0,0,1,5.854,15.4v27a22.128,22.128,0,0,1-1.781,8.723,22.812,22.812,0,0,1-12,12,22.128,22.128,0,0,1-8.723,1.781,20.871,20.871,0,0,1-15.389-6.634,22.23,22.23,0,0,1-4.492-7.157,23.84,23.84,0,0,1-1.619-8.709v-27a22.91,22.91,0,0,1,5.854-15.4,21.475,21.475,0,0,1,14.613-7.1Zm3,1H150.6c-10.945.719-19.516,10.16-19.516,21.5v27c0,12.056,9,21.5,20.5,21.5a21.524,21.524,0,0,0,21.5-21.5v-27C173.08,138.622,164.509,129.181,153.564,128.462Zm-1.984,2a19.522,19.522,0,0,1,19.5,19.5v27a19.5,19.5,0,0,1-39,0v-27A19.522,19.522,0,0,1,151.58,130.462Zm0,65a18.521,18.521,0,0,0,18.5-18.5v-27a18.5,18.5,0,0,0-37,0v27A18.521,18.521,0,0,0,151.58,195.462Z" transform="translate(-130.119 -128.462)" fill="#fff"/></g></g></g><rect width="3" height="14" transform="translate(401.5 706.5)" fill="#f15d28"/><path d="M-.5-.5h4v15h-4Zm3,1H.5v13h2Z" transform="translate(401.5 706.5)" fill="#f15d28"/></g></svg>