<svg xmlns="http://www.w3.org/2000/svg" width="93.458" height="64.798" viewBox="0 0 93.458 64.798"><g transform="translate(-785.36 -365.99)"><path d="M878.815,405.245h-4.807v5.2a5.436,5.436,0,0,1-1.282.381c-2.74.03-5.484.041-8.224,0-.725-.011-1.447-.254-2.179-.318-.669-.056-1.35-.011-2.194-.011.269.9.486,1.641.763,2.564l-3.024,1.181c.127,1.035.254,2.049.393,3.17l-3.327.751v3.1h-3.159c-.262,1.241-.49,2.3-.714,3.361l-3.1-.389c-.389,1.028-.729,1.94-1.136,3.024-.979-.288-2.007-.583-3.14-.916-.5.886-1.032,1.843-1.645,2.942-.961-.508-1.821-.964-2.77-1.469-.677.793-1.417,1.663-2.179,2.557l-2.579-1.88c-.755.721-1.51,1.439-2.4,2.292q-1.234-1.172-2.381-2.265l-2.549,1.862c-.677-.852-1.312-1.656-2.037-2.564-.9.434-1.88.9-2.9,1.383-.482-.893-.916-1.7-1.342-2.493-1.178-.471-2.06.374-3.163.542-.852-.677-.77-1.806-1.118-2.744-1.136-.714-2.254.43-3.409.075-.206-1.043-.4-2.056-.624-3.17l-3.241-.157v-3.1c-1.163-.247-2.228-.475-3.346-.71.2-1.013.381-1.959.6-3.088-.893-.351-1.839-.721-2.957-1.159.112-.785.235-1.611.366-2.531a6.04,6.04,0,0,0-3.256-.1,14.558,14.558,0,0,1-3.129.258c-1.806.026-3.615.019-5.42,0a13.684,13.684,0,0,1-1.536-.194v-5.327c-1.865-.022-3.585-.045-5.3-.067V404.5c.565-1.009,1.181-1.989,1.66-3.039a1.883,1.883,0,0,0,0-1.4c-.479-1.047-1.1-2.034-1.656-3.043v-.748h13.226c.142,1.069.265,2,.385,2.9H862.95c0-.093.008-.187.011-.277h-5.088c0-.736-.011-1.282,0-1.832a19.592,19.592,0,0,0-1.039-6.153,25.692,25.692,0,0,0-8.949-13.091c-4.557-3.592-9.831-4.912-15.424-5.439a2.319,2.319,0,0,0-.549.064c-.606.09-1.207.194-1.813.273-1.1.138-2.209.187-3.293.4a23.912,23.912,0,0,0-11.043,5.319,25.378,25.378,0,0,0-7.2,9.573,24.068,24.068,0,0,0-1.918,8.217,20.989,20.989,0,0,1-.43,2.617c-4.886.217-5.148.194-6.22-.512.755-.8,1.5-1.6,2.224-2.366-.706-.976-1.312-1.813-1.944-2.684.95-.721,1.813-1.379,2.733-2.075-.542-.957-1.021-1.8-1.581-2.785l2.908-1.727c-.034-1.065-1.088-1.992-.452-3.211.886-.336,1.783-.68,2.609-.994-.082-.639-.15-1.118-.209-1.6s-.112-.949-.179-1.529c1.035-.262,2.078-.531,3.219-.819V375.4c1.144-.052,2.172-.1,3.211-.142.269-1.107.516-2.1.763-3.114,1.1.135,2.108.262,3.159.389q.589-1.57,1.144-3.065l3.065.961c.557-1.047,1.069-2,1.611-3.02.568.333.991.587,1.417.826.467.262.946.512,1.424.774.748-.953,1.417-1.809,2.082-2.658.942.68,1.783,1.286,2.691,1.94.7-.766,1.69-1.174,1.824-2.3h.748c.654.733,1.308,1.469,2,2.239.961-.621,1.832-1.185,2.766-1.791.692.834,1.387,1.671,2.06,2.478l2.845-1.379c.568,1.017,1.1,1.97,1.66,2.968,1.021-.366,1.925-.7,2.972-1.073.437,1.114.852,2.176,1.256,3.2,1.028-.206,1.977-.393,2.882-.576.979.9.411,2.161.819,3.3h3.073c.834,1.125.336,2.232.336,3.245a14.355,14.355,0,0,0,1.48.43c.523.093,1.065.1,1.734.153-.161,1.252-.3,2.325-.419,3.3.923.8,2.329.3,2.987,1.454-.284.9-.557,1.772-.886,2.807.927.523,1.817,1.028,2.848,1.611-.422.935-.822,1.817-1.29,2.841.785.692,1.589,1.4,2.434,2.138l-1.727,2.576c.7.755,1.327,1.432,1.966,2.123-.067.419-.127.785-.2,1.237l1.5-.108c.46-.961-.221-2.019.763-2.9h12.5v1.5c-.452.789-.957,1.551-1.327,2.377a1.674,1.674,0,0,0,0,1.234c.37.822.878,1.585,1.331,2.37C878.815,404.247,878.815,404.744,878.815,405.245Zm-25.5,5.353c-4.071-.3-42.44-.179-43.849.123a25.608,25.608,0,0,0,27.763,13.151,24.834,24.834,0,0,0,14.291-8.321,13.476,13.476,0,0,0,3.076-5.039l-1.4,1.286C853.253,411.267,853.279,410.987,853.316,410.6Zm-29.038-9.177a5.045,5.045,0,0,0-1.14,4.045c.127,2,1.036,2.763,3.136,2.665,2.351-2.056,2.321-4.931-.206-7.043C825.474,401.2,824.764,401.331,824.278,401.421Zm-1.933,3.327h.011a12.386,12.386,0,0,0-.011-1.492,2.308,2.308,0,0,0-2.205-2.1,2.238,2.238,0,0,0-2.224,2.071,15.559,15.559,0,0,0,.007,2.979,2.249,2.249,0,0,0,2.277,2.011,2.328,2.328,0,0,0,2.131-1.978A9.869,9.869,0,0,0,822.345,404.748Zm19.842-2.4c0,1.406-.067,2.583.019,3.749a2.211,2.211,0,0,0,4.411.112,13.362,13.362,0,0,0-.019-3.14,2.12,2.12,0,0,0-2.863-1.753A9.851,9.851,0,0,0,842.188,402.344Zm-34.619.628a3.033,3.033,0,0,1,2.385-.1,1.449,1.449,0,0,1-.482,1.656c-.673.639-1.308,1.316-1.97,1.97a1.165,1.165,0,0,0-.232,1.63c3.708.28,3.847.258,4.575-.736-.624-1.234-1.951-.191-2.759-.826,1.992-1.548,2.837-3.1,2.235-4.329-.314-.3-.718-.669-1.114-1.039a3.557,3.557,0,0,0-3.2,1.039C807.213,402.5,807.355,402.692,807.568,402.972Zm31.016,3.8c1.555-1.563,3.118-2.718,2.273-4.856-1.85-1.14-2.4-1.1-3.948.355.172.217.355.437.471.587.684-.172,1.256-.318,1.963-.5.112.572.2,1.028.28,1.439-1.084,1.312-2.09,2.531-3.234,3.91,1.708.875,3.3.355,4.919.471v-1.409Zm18.9.049c-.022-.46-.045-1-.067-1.443-.415-.359-.721-.624-1.069-.923a2.091,2.091,0,0,0,.609-2.538c-1.563-.935-3.342-.953-3.929.015.041.164.1.389.194.755.65-.123,1.234-.232,1.82-.344.336.221.688.456.856.564-.348,1.3-1.312,1.129-2.037,1.357v.837c.8.322,2.232-.269,2.12,1.279-.935,1.207-2.06.535-3.219.363-.022.381-.041.658-.056.893C854.812,408.65,855.9,408.467,857.484,406.822Zm-45.127-4.351c1.073.325,2.041-.142,3.058.467-.8,1.7-1.581,3.349-2.43,5.151h1.622c.878-2.086,1.757-4.161,2.632-6.243-.284-.265-.445-.546-.639-.576a20.869,20.869,0,0,0-4.243-.056Zm38.7-1c-.415-.135-.751-.243-1.058-.344-.778.617-1.492,1.185-2.318,1.839l.751.789c.441-.239.77-.422,1.286-.7v5.192l1.335-.329C851.055,405.768,851.055,403.727,851.055,401.469Zm-19.02,6.673c0-2.359,0-4.527-.011-6.691,0-.082-.164-.164-.325-.31a5.838,5.838,0,0,0-2.931,2.086c.273.206.5.381.7.531l1.193-.751v5.136Zm2.52-3.7c1.2-.3,1.316-.419,1.189-1.252-.258-.138-.561-.3-.965-.523-.269.262-.52.508-.785.77Zm-.819,3.144c.568.277.931.6,1.256.568s.591-.434.92-.7C834.891,406.662,834.891,406.662,833.736,407.589Z" fill="#c1c1c1"/><path d="M925.353,419.636a4.614,4.614,0,0,1-3.581-1.3,3.765,3.765,0,0,1-1.518-3.4,11.222,11.222,0,0,1,.142-2.206,4.333,4.333,0,0,1,2.62-2.9c2.5-1,4.949-.7,6.624,1.021a5.162,5.162,0,0,1,1.006,5.977c-.822,2.03-2.561,2.691-4.591,2.815C925.873,419.647,925.686,419.636,925.353,419.636Zm.508-8.721c-.568.277-1,.486-1.424.692-.426,2.1-.942,4.142.378,6.093h1.637c1.092-1.847.344-3.843.561-5.716C926.609,411.61,926.3,411.322,925.862,410.914Z" transform="translate(-84.455 -27.093)" fill="#c1c1c1"/><path d="M896.159,415.517c-.232-.183-.464-.363-.7-.546a2.973,2.973,0,0,1-1.129-3.144,2.84,2.84,0,0,1,2.411-2.28,4.064,4.064,0,0,1,2.684-.071,2.671,2.671,0,0,0,2.639.071c.123-.078.363.022.636.049.445,1.118.064,2.284.25,3.592-.737.034-1.335.064-1.933.09-.239-.6-.475-1.2-.658-1.671l-1.686-.535c-.4.232-.856.5-1.406.822,1.121,1.118,2.475,1.151,3.757,1.376a7.334,7.334,0,0,0,.706.523,3.057,3.057,0,0,1,1.114,4.419,3.483,3.483,0,0,1-2.68,1.409,6.544,6.544,0,0,1-3.794-.624c-.583.355-1.144,1.088-1.97.12a7.821,7.821,0,0,1,.157-3.48l1.6-.123a2.772,2.772,0,0,0,1.323,2.149h2.292c-.071-1.069-.075-1.185-.464-1.3C898.271,416.051,897.209,415.794,896.159,415.517Z" transform="translate(-68.184 -27.094)" fill="#c1c1c1"/><path d="M890.235,397.239c-.684.583-1.278,1.088-1.992,1.7-.378-1.121.807-1.312.83-2.108-.381-.46-.789-.34-1.192.045-.755.729-1.5,1.465-2.292,2.235-.486-.968.277-1.323.71-1.776a11.981,11.981,0,0,1,8.826-4.063,9.433,9.433,0,0,1,7.241,3.207c.579.673,1.619,1.069,1.637,2.329-1.013-.938-1.9-1.757-2.875-2.658-.254.213-.512.43-.8.673.434.613.807,1.14,1.282,1.809-1.3.247-1.163-1.144-2.1-1.342-.3.108-.751.273-1.193.434.064.441.116.834.228,1.63-.535-.6-.8-.89-1.125-1.26h-1.974c-.179.187-.381.4-.464.486-.972-.292-1.85-.557-2.744-.826-.292.37-.546.688-1.024,1.29v-1.372C890.934,397.542,890.567,397.381,890.235,397.239Zm2.336-.056h1.712V395.49c-.318-.019-.546-.03-.822-.049C893.173,396.006,892.9,396.54,892.571,397.183Zm4.441.022c-.628-.658-.378-1.858-1.749-1.734v1.734Zm-.093-2.52c-.12.1-.243.209-.363.314a15.257,15.257,0,0,0,1.23,1.708c.314.333.755.273,1.121-.217A6.076,6.076,0,0,0,896.918,394.686Zm-4.164.557c-.811.146-.811.146-2.007,1.376C891.876,396.869,891.876,396.869,892.754,395.243Zm.262-.807c2.355.329,2.355.329,3.185-.65C895.105,394.009,894.249,394.185,893.016,394.436Zm-4.108,1.548c1.3.322,1.585-.277,1.839-.949C890.242,395.292,889.741,395.553,888.908,395.983Zm10.209-1.032c.426.987.426.987,1.406.875C899.973,395.486,899.6,395.247,899.117,394.951Z" transform="translate(-62.663 -17.081)" fill="#c1c1c1"/><path d="M899.909,439.213c.535-.594,1.054-1.17,1.708-1.9.292,1.1-.785,1.469-.725,2.333.1.086.277.243.6.52.908-.908,1.794-1.8,2.972-2.976a4.641,4.641,0,0,1-.3,1.1,10.521,10.521,0,0,1-6.919,4.448c-3.48.7-6.359-.381-9.132-2.325a8.042,8.042,0,0,1-2.692-3.054c1.492.609,2.1,1.944,3.271,2.673.176-.082.389-.179.751-.351-.37-.7-.714-1.353-1.054-2l.206-.146c.561.523,1.121,1.043,1.738,1.619.355-.093.755-.194,1.189-.307-.049-.378-.1-.759-.2-1.54l1.129,1.185h1.787c.224-.292.479-.624.692-.9l2.426,1.1c.449-.482.8-.86,1.458-1.559-.127.792-.187,1.163-.258,1.6C898.978,438.881,899.419,439.038,899.909,439.213Zm-7.11.258c.736.572.5,1.869,1.832,1.619v-1.966C894.063,439.228,893.592,439.322,892.8,439.471Zm2.789,1.809c1.054-.411,1.118-1.148,1.417-1.794a2.984,2.984,0,0,0-.654-.464,2.642,2.642,0,0,0-.763-.015Zm1.342-.056c.131.131.262.258.393.389a11.352,11.352,0,0,0,1.9-1.731c-.4-.191-.7-.336-1.1-.527C897.7,440.025,897.315,440.623,896.93,441.224Zm-5.9-1.361a6.091,6.091,0,0,0,2.3,1.832c-.568-.953-.953-1.6-1.346-2.254C891.67,439.58,891.394,439.7,891.035,439.864Zm9.095.2c-.445.508-.8.912-1.151,1.316.064.067.127.131.191.2l1.548-.856C900.507,440.484,900.388,440.35,900.13,440.062Zm-6.673,1.944.056.292a11.145,11.145,0,0,0,1.458-.015c.464-.064,1,.25,1.492-.277Zm-2.71-.819c-.191-.617-.415-1.166-1.51-.845C889.928,440.727,890.339,440.959,890.747,441.187Z" transform="translate(-62.656 -44.54)" fill="#c1c1c1"/><path d="M881.954,417.756c.422.729,1.746.669,1.264,1.97-1.839.292-3.734.034-5.738.157-.037-.516-.06-.867-.09-1.275l1.047-.49v-5.734a9.857,9.857,0,0,1-1.013-1.349c-.086-.161.206-.523.344-.845h5.151c.157.325.333.684.538,1.11-.546.426-1.013.792-1.5,1.177Z" transform="translate(-57.628 -27.677)" fill="#c1c1c1"/><path d="M898.95,385.9c.71-.452,1.17-1.009,2.2-.378C900.4,385.936,899.952,386.549,898.95,385.9Z" transform="translate(-71.128 -12.055)" fill="#c1c1c1"/><path d="M969.357,421.36a2.368,2.368,0,0,1,.789,1.589C969.028,422.534,968.875,422.224,969.357,421.36Z" transform="translate(-115.053 -34.672)" fill="#c1c1c1"/><path d="M867.138,400.5c-.4.381-.792.759-1.435,1.379-.06-1.278.46-1.57,1.11-1.749Z" transform="translate(-50.306 -21.378)" fill="#c1c1c1"/><path d="M914.64,385.424c.583-.527,1.144-.467,1.966-.052A1.514,1.514,0,0,1,914.64,385.424Z" transform="translate(-80.953 -11.932)" fill="#c1c1c1"/><path d="M843.728,445.29a1.432,1.432,0,0,1,.06,1.9A1.432,1.432,0,0,1,843.728,445.29Z" transform="translate(-36.343 -49.656)" fill="#c1c1c1"/><path d="M930.508,389.139c-.538-.172-1.073-.344-1.977-.632.553-.239.819-.464.994-.4a7.871,7.871,0,0,1,1.192.621C930.646,388.862,930.575,389,930.508,389.139Z" transform="translate(-89.651 -13.841)" fill="#c1c1c1"/><path d="M950.951,399.835c-.972-.381-1.417-.718-1.581-1.521C950.331,398.262,950.634,398.777,950.951,399.835Z" transform="translate(-102.7 -20.238)" fill="#c1c1c1"/><path d="M960.36,409.1c.931.086,1.241.579,1.555,1.353C960.887,410.483,960.6,409.967,960.36,409.1Z" transform="translate(-109.582 -26.995)" fill="#c1c1c1"/><path d="M922.38,386.814c.822-.677,1.256-.441,1.544.639C923.258,387.176,922.817,387,922.38,386.814Z" transform="translate(-85.799 -12.801)" fill="#c1c1c1"/><path d="M845.4,432.163c.191-.4.378-.811.6-1.293.217.172.452.273.449.374C846.443,431.864,846.424,431.864,845.4,432.163Z" transform="translate(-37.596 -40.626)" fill="#c1c1c1"/><path d="M936.25,390.93a1.931,1.931,0,0,1,2,1.14A2.493,2.493,0,0,1,936.25,390.93Z" transform="translate(-94.485 -15.617)" fill="#c1c1c1"/><path d="M844.367,439.787c-.007-.864-.224-1.439.385-2.1C845.219,438.464,845.216,439,844.367,439.787Z" transform="translate(-36.922 -44.897)" fill="#c1c1c1"/><path d="M976.266,443.24c.03.52.06,1.035.1,1.663C975.564,444.2,975.564,444.2,976.266,443.24Z" transform="translate(-119.219 -48.372)" fill="#c1c1c1"/><path d="M945.119,395.642c-.826-.464-1.566-.449-1.589-1.492C944.375,394.214,944.7,394.685,945.119,395.642Z" transform="translate(-99.043 -17.633)" fill="#c1c1c1"/><path d="M873.706,396.034,871.8,397.2C872.08,396.2,872.439,395.948,873.706,396.034Z" transform="translate(-54.127 -18.803)" fill="#c1c1c1"/><path d="M878.11,393.182c.333-.991.748-1.245,1.57-.983C879.456,392.92,878.959,393.044,878.11,393.182Z" transform="translate(-58.078 -16.351)" fill="#c1c1c1"/><path d="M908.361,385.7H906.69C907.415,384.988,907.864,384.973,908.361,385.7Z" transform="translate(-75.975 -12.004)" fill="#c1c1c1"/><path d="M892.57,387.187c.434-.03.864-.06,1.435-.1-.142.325-.191.594-.273.6a10.021,10.021,0,0,1-1.163.019C892.57,387.539,892.57,387.363,892.57,387.187Z" transform="translate(-67.133 -13.212)" fill="#c1c1c1"/><path d="M887.162,389.551c-.647.209-1.069.348-1.574.512.011-.213-.041-.419.037-.516C885.981,389.106,886.392,388.807,887.162,389.551Z" transform="translate(-62.757 -14.47)" fill="#c1c1c1"/><path d="M974.584,437.231a3.81,3.81,0,0,1-.194-.8,2.889,2.889,0,0,1,.247-.785,1.2,1.2,0,0,1,.351,1.54C974.853,437.2,974.718,437.216,974.584,437.231Z" transform="translate(-118.367 -43.62)" fill="#c1c1c1"/><path d="M972.972,429.87c-.778-.37-.647-.968-.579-1.72A1.229,1.229,0,0,1,972.972,429.87Z" transform="translate(-117.083 -38.923)" fill="#c1c1c1"/><path d="M849.576,423.59c-.25.744-.4,1.166-.553,1.637C848.308,424.491,848.3,424.487,849.576,423.59Z" transform="translate(-39.562 -36.068)" fill="#c1c1c1"/><path d="M965.856,414.95c.236.419.471.837.867,1.551-1.05-.265-1.17-.77-1.264-1.3C965.595,415.118,965.725,415.036,965.856,414.95Z" transform="translate(-112.775 -30.658)" fill="#c1c1c1"/><path d="M857.013,411.144c-.34.437-.684.878-1.207,1.548-.206-1.181.464-1.394.89-1.772C856.8,410.995,856.9,411.07,857.013,411.144Z" transform="translate(-44.088 -28.134)" fill="#c1c1c1"/><path d="M862.456,405.07c-.546.632-.908,1.054-1.271,1.477C861.017,405.6,861.391,405.186,862.456,405.07Z" transform="translate(-47.456 -24.471)" fill="#c1c1c1"/><path d="M850.57,418.557c.557-.68.849-1.039,1.159-1.417.123.172.239.258.243.348C851.983,418.108,851.733,418.5,850.57,418.557Z" transform="translate(-40.833 -32.029)" fill="#c1c1c1"/><path d="M956.066,403.14l1.406,1.5C956.335,404.411,956.032,403.929,956.066,403.14Z" transform="translate(-106.891 -23.262)" fill="#c1c1c1"/><path d="M977.066,451.193c-.12.288-.239.576-.359.86-.071-.019-.146-.034-.217-.052.052-.31.1-.621.153-.931Z" transform="translate(-119.682 -53.275)" fill="#c1c1c1"/><path d="M926.04,516.6c-.549.191-1.1.378-1.94.669.493-1.092,1.237-.882,1.761-1.14Z" transform="translate(-86.877 -94.015)" fill="#c1c1c1"/><path d="M951.14,502.678c.527-.426.9-.729,1.454-1.178C952.355,502.644,952.355,502.644,951.14,502.678Z" transform="translate(-103.808 -84.854)" fill="#c1c1c1"/><path d="M868.5,505.222c-.37-.3-.744-.606-1.215-.987.953-.363,1.267.067,1.514.609C868.7,504.972,868.6,505.1,868.5,505.222Z" transform="translate(-51.303 -86.483)" fill="#c1c1c1"/><path d="M874.12,507.93c.5.262,1,.527,1.731.912C874.685,509.283,874.363,508.681,874.12,507.93Z" transform="translate(-55.58 -88.88)" fill="#c1c1c1"/><path d="M894.57,517.124a1.27,1.27,0,0,1,1.719.449C895.579,517.8,895.026,517.871,894.57,517.124Z" transform="translate(-68.385 -94.541)" fill="#c1c1c1"/><path d="M901.88,518.449a1.3,1.3,0,0,1,1.768-.067C903.091,518.946,902.628,518.852,901.88,518.449Z" transform="translate(-72.963 -95.227)" fill="#c1c1c1"/><path d="M918.748,518.733H917.32c.142-.265.217-.538.3-.542a8.473,8.473,0,0,1,1.148.064C918.763,518.412,918.755,518.573,918.748,518.733Z" transform="translate(-82.631 -95.302)" fill="#c1c1c1"/><path d="M963.387,491.183c.041.621-.407.886-1.077,1.013.228-.407.46-.815.688-1.226Z" transform="translate(-110.803 -78.26)" fill="#c1c1c1"/><path d="M857.962,492.25c.37.68.579,1.069.8,1.48-.191.045-.34.116-.37.082C858.081,493.465,857.416,493.259,857.962,492.25Z" transform="translate(-45.332 -79.062)" fill="#c1c1c1"/><path d="M947.4,507.11c-.613.516-.979.822-1.477,1.237C946.021,507.484,946.021,507.484,947.4,507.11Z" transform="translate(-100.54 -88.367)" fill="#c1c1c1"/><path d="M941.047,511.3c-.572.322-.964.546-1.439.811,0-.262-.064-.464.011-.568C939.914,511.135,940.284,510.865,941.047,511.3Z" transform="translate(-96.571 -90.851)" fill="#c1c1c1"/><path d="M880.59,512.59c.792-.4,1.241-.213,1.454.774C881.431,513.035,881.009,512.815,880.59,512.59Z" transform="translate(-59.631 -91.675)" fill="#c1c1c1"/><path d="M932.13,515.18c.277-1.006.714-1.207,1.5-1.073C933.352,514.818,932.792,514.81,932.13,515.18Z" transform="translate(-91.905 -92.725)" fill="#c1c1c1"/><path d="M853.76,486.3c.307.419.587.8.923,1.252-.235.019-.46.1-.542.026C853.749,487.242,853.764,487.227,853.76,486.3Z" transform="translate(-42.831 -75.336)" fill="#c1c1c1"/><path d="M957.57,497.28c.344-.321.688-.639,1.346-1.26C958.362,497.1,958.362,497.1,957.57,497.28Z" transform="translate(-107.835 -81.422)" fill="#c1c1c1"/><path d="M863.353,500.274c-.52-.684-.811-1.069-1.1-1.454C862.942,498.928,863.386,499.209,863.353,500.274Z" transform="translate(-48.147 -83.176)" fill="#c1c1c1"/><path d="M888.7,515.774c-.385-.161-.77-.325-1.159-.486l.123-.348,1.219.366C888.822,515.46,888.759,515.617,888.7,515.774Z" transform="translate(-63.983 -93.27)" fill="#c1c1c1"/><path d="M910.992,519.309H909.22A1.546,1.546,0,0,1,910.992,519.309Z" transform="translate(-77.559 -95.83)" fill="#c1c1c1"/><path d="M891.3,463.33c1.267,1.675,1.271,2.893.019,4.6-1.058-.351-1.036-1.226-1.009-2.1C890.333,464.878,890.071,463.808,891.3,463.33Z" transform="translate(-65.711 -60.952)" fill="#c1c1c1"/><path d="M877.015,462.77c1.189.961.654,2.1.744,3.1.06.65.187,1.409-.654,1.791a.914.914,0,0,1-.849-1.174C876.428,465.286,875.665,463.888,877.015,462.77Z" transform="translate(-56.879 -60.602)" fill="#c1c1c1"/><path d="M941.113,462.99c.49.25.8.407,1.14.583-.112,1.458.434,2.934-.441,4.228-.878-.034-.882-.609-1.121-1.11C940.074,465.412,940.624,464.347,941.113,462.99Z" transform="translate(-97.094 -60.739)" fill="#c1c1c1"/></g></svg>