<svg xmlns="http://www.w3.org/2000/svg" width="136.133" height="64.912" viewBox="0 0 136.133 64.912"><g transform="translate(-43.709 -33.405)"><path d="M148.679,98.27a1.5,1.5,0,0,1,0-2.587c1.633-1.437,3.319-2.81,4.989-4.2,1.283-1.06,2.582-2.121,3.87-3.181q2.751-2.264,5.5-4.543c1.161-.96,2.306-1.94,3.456-2.916.859-.732,1.723-1.458,2.576-2.205.276-.244.5-.53.949-1.018L160.9,80.006q-8.54,2.253-17.07,4.511c-2.285.61-4.554,1.278-6.839,1.871a6.706,6.706,0,0,1-3.928.111,1.765,1.765,0,0,1-1.034-.758,1.124,1.124,0,0,1,.361-1.474,9.542,9.542,0,0,1,2.121-.96c5.238-1.437,10.486-2.831,15.734-4.241,3.843-1.023,7.692-2.025,11.631-3.059a3.445,3.445,0,0,1,.254-2.592,14.315,14.315,0,0,0,.493-3.324l-1.214.254a3.817,3.817,0,0,1-4.66-3.128,5.831,5.831,0,0,1,.726-3.8,1.776,1.776,0,0,1,1.781-.981c1.256.064,2.508.164,3.854.254a6.785,6.785,0,0,0,.488-3.822c-1.193-.578-1.442-1.06-1.06-2.327,1.06-3.578,2.211-7.141,3.3-10.719.822-2.7,1.59-5.418,2.428-8.116a5.25,5.25,0,0,1,3.393-3.865c.62-.207,1.325-.456,1.718.127a2.768,2.768,0,0,1,.3,1.755,13.255,13.255,0,0,1-.657,2.121q-2.121,6.775-4.241,13.561a44.007,44.007,0,0,0-1.309,5.455c1.028-.827,2.068-1.643,3.085-2.486q2.9-2.386,5.789-4.771c1.728-1.453,3.425-2.937,5.158-4.39s3.616-2.963,5.413-4.453c1.188-.991,2.333-2.036,3.547-3,1.665-1.32,3.319-2.651,5.084-3.833a3.356,3.356,0,0,1,2.937-.339c1.177.408,1.357,1.214.419,2.015-2.8,2.386-5.625,4.771-8.429,7.136-2.264,1.919-4.511,3.859-6.786,5.768s-4.49,3.711-6.987,5.789c.779-.122,1.283-.159,1.76-.286l20.993-5.614c3.478-.928,6.977-1.8,10.428-2.842a6.375,6.375,0,0,1,2.815-.472,5.683,5.683,0,0,1,1.956.732,1.06,1.06,0,0,1,.117,1.718,6.128,6.128,0,0,1-2.073,1.06c-4.951,1.368-9.914,2.651-14.876,4l-11.891,3.181c-.313.085-.6.223-1.145.429l3.944,1.06a7.68,7.68,0,0,1,0,1.877,24.789,24.789,0,0,0-.848,7.035,6.3,6.3,0,0,1-1.59,4.183,4.019,4.019,0,0,0-.6,1.193c-.694,2.089-1.357,4.193-2.062,6.362h-2.444c-.4,2.905-.8,5.731-1.2,8.625l.917.223c-.53,1.776-1.06,3.52-1.59,5.264-.18.6-.392,1.188-.53,1.792a7.14,7.14,0,0,1-3.478,4.49h-1.776a2.658,2.658,0,0,1-.281-2c.922-2.7,1.665-5.471,2.508-8.206a35.8,35.8,0,0,0,1.325-3.785c.578-2.8,1.559-5.508,2.37-8.254.08-.265.138-.53.239-.922a3.844,3.844,0,0,0-.822.355c-1.156.965-2.3,1.946-3.441,2.921s-2.216,1.9-3.345,2.831a.92.92,0,0,1-1.59-.392c-.079-.17-.127-.35-.191-.53l-.292-.09c-.355.578-.737,1.134-1.06,1.728-.228.445-.323.949-.53,1.4a7.422,7.422,0,0,1-2.121,2.73c-1.808,1.421-3.509,2.969-5.27,4.448-1.85,1.553-3.711,3.08-5.588,4.623a12.916,12.916,0,0,1-4.379,2.81c-.292.085-.573.223-.854.334Zm15.57-30.424c-.286.769.3,1.553.53,2.444A3.264,3.264,0,0,0,167.8,72.85a9.172,9.172,0,0,0,.975.17,1.357,1.357,0,0,0,.806-.148,4.213,4.213,0,0,1,5.492,0,2.221,2.221,0,0,0,2.614.138,1.336,1.336,0,0,1,.944-.217c1.3.419,2.195-.286,3.043-1.06A7.351,7.351,0,0,0,183.88,66.9c.3-2.248,0-4.209-1.855-5.71-.689-.53-1.442-1.028-2.121-1.59-2.757-2.258-8.726-2.121-11.6,1.771a4.008,4.008,0,0,1-1.225,1.023,5.481,5.481,0,0,0-2.826,5.455Zm6.722,5.879c1.166,1.06,2.412.954,3.748.8C173.532,73.141,172.5,72.913,170.971,73.724Z" transform="translate(-41.433)" fill="#5a5a5a"/><path d="M280.885,91.479a3.266,3.266,0,0,1-3.393.822c-2-.53-4.04-.933-6.065-1.362-.53-.106-.848-.3-.906-.869a10.168,10.168,0,0,0-.27-1.548c-.329-1.251.588-2.121,2.025-1.808q3.213.716,6.388,1.553a4.469,4.469,0,0,1,2.221,1.686Z" transform="translate(-106.413 -25.018)" fill="#5a5a5a"/><path d="M251.07,115.642a3.43,3.43,0,0,1-3-2.773c-.1-.949-.042-1.924-.048-2.884v-1.643c-.376.53-.594.859-.853,1.161-.6.726-1.06.657-1.553-.133-.981-1.633-2.015-3.234-2.985-4.872a2.121,2.121,0,0,1-.3-1.145,19.836,19.836,0,0,0,.3-2.587,16.855,16.855,0,0,0-.265-2.7,26.164,26.164,0,0,0-.53-2.688,3.406,3.406,0,0,1,2.449,1.415c.689,1.209,1.49,2.354,2.242,3.525.069.111.122.228.2.329.626.832.334,2.014,1.41,2.794.838.6,1.177,1.887,1.76,2.857s1.166,1.813,1.712,2.746a2.974,2.974,0,0,1,.44,2.391C251.685,112.832,251.393,114.263,251.07,115.642Z" transform="translate(-93.095 -29.12)" fill="#5a5a5a"/><path d="M159.838,56a2.333,2.333,0,0,1,1.734,1.219c2.041,3.239,4.061,6.484,6.118,9.712a6.622,6.622,0,0,0,1.06,1.188c.626.6.61,1.15-.17,1.458A4.856,4.856,0,0,0,166,71.867c-.424.779-.96.747-1.415,0-2.036-3.287-4.087-6.563-6.1-9.86-.673-1.1-1.394-2.179-1.145-3.61A2.576,2.576,0,0,1,159.838,56Z" transform="translate(-53.365 -10.617)" fill="#5a5a5a"/><path d="M135.034,92.426c.875.154,1.935.323,2.99.53a.848.848,0,0,1,.456.53,1.808,1.808,0,0,0,1.495,1.214c.981.249,1.977.429,2.942.726a10.311,10.311,0,0,1,2.046.891c.594.329.53,1.013-.133,1.415a4.628,4.628,0,0,1-3.775.53c-1.654-.451-3.313-.891-4.978-1.3-.684-.164-1.06-.307-1.023-1.225a3.738,3.738,0,0,0-1.06-1.94c-.239-.3-.864-.419-.594-.907.148-.27.684-.334,1.06-.467A2.6,2.6,0,0,1,135.034,92.426Z" transform="translate(-42.112 -27.724)" fill="#5a5a5a"/><path d="M168.851,104.9l-5.6-1.262c-.6-.133-1.23-.212-1.829-.387a1.06,1.06,0,0,1-.62-.53c-.064-.143.117-.5.286-.615a2.492,2.492,0,0,0,1.23-2.083c0-.493.361-.71.885-.657.864.08,1.728.106,2.592.17.626.048.944.329.716,1.007-.058.18-.138.477-.048.573a19.872,19.872,0,0,0,1.961,1.935,2.078,2.078,0,0,0,1.06.223,9.153,9.153,0,0,1,1.384.058c.3.074.53.4.811.615-.228.207-.424.53-.689.594A20.072,20.072,0,0,1,168.851,104.9Z" transform="translate(-55.01 -30.988)" fill="#5a5a5a"/><path d="M252.384,86.242a23.669,23.669,0,0,1-2.773-.97c-.907-.44-.382-1.352-.361-2.046,0-.3.207-.53,0-.88-.387-.668-.138-1.06.657-.96a28.012,28.012,0,0,1,3.282.641,11.42,11.42,0,0,1,1.882.641.965.965,0,0,1,.53.6.832.832,0,0,1-.4.684,1.4,1.4,0,0,0-.986,1.4C254.15,86.279,253.238,86.072,252.384,86.242Z" transform="translate(-96.493 -22.537)" fill="#5a5a5a"/><path d="M256.034,96.555l-6.012-.106-.949-8.652-.138-.053c-.859,2.873-1.723,5.752-2.6,8.684h-3.711l-2.513-8.482h-.2c-.307,2.8-.615,5.6-.933,8.482H233c.949-5.63,1.893-11.2,2.842-16.842h6.441q1.113,4.061,2.28,8.3c.8-2.762,1.59-5.519,2.386-8.307h6.393c.307,1.84.626,3.663.917,5.492.53,3.3,1.023,6.611,1.548,9.914a2.652,2.652,0,0,0,.239.567Z" transform="translate(-88.941 -21.696)" fill="#c1c1c1"/><path d="M205.043,96.592a6.714,6.714,0,0,0-.827-.249c-4.771-.832-7.666-4.771-7.295-9.882a8.712,8.712,0,0,1,8.514-7.878c4.692-.17,8.525,2.571,9.367,6.892,1.193,6.118-2.709,10.173-7.289,10.878a4.136,4.136,0,0,0-.694.239Zm3.711-9.055c0-1.771-.96-3.032-2.417-3.181a2.693,2.693,0,0,0-3.107,2.121,3.271,3.271,0,0,0,1.686,4.045c1.993.758,3.849-.684,3.849-2.985Z" transform="translate(-71.974 -21.224)" fill="#c1c1c1"/><path d="M109.416,80.222c-.61,1.458-1.187,2.852-1.808,4.342-1.336-.641-2.566-1.484-4.077-1.156-.292.064-.53.334-.991.631a6.186,6.186,0,0,0,1.06.816,8.742,8.742,0,0,0,1.818.53c1.988.355,3.547,1.3,4.045,3.345a5.768,5.768,0,0,1-1.691,5.831,6.717,6.717,0,0,1-3.965,1.813,12.654,12.654,0,0,1-7.03-1.166c-.217-.106-.445-.186-.769-.318L96.125,96H89.748L89.1,93.952H84.643l-.61,2.036H77.47c2.025-5.7,3.992-11.265,6-16.874h6.892c1.744,4.978,3.478,9.919,5.3,15.157l1.908-4.416a12.78,12.78,0,0,0,1.845,1.018,12.223,12.223,0,0,0,2.651.62c.307.037.663-.4,1-.626-.239-.307-.413-.726-.721-.891a5.832,5.832,0,0,0-1.59-.472c-2.052-.429-3.711-1.394-4.124-3.594a5.609,5.609,0,0,1,2.184-5.831,7.639,7.639,0,0,1,5.02-1.426A10.693,10.693,0,0,1,109.416,80.222ZM85.7,89.7h2.333l-1.172-4.856Z" transform="translate(-15.863 -21.251)" fill="#c1c1c1"/><path d="M54.848,87.333V79.45h5.635c.281.869.392,14.494.127,16.805a7.574,7.574,0,0,1-.938.106c-1.357,0-2.709-.032-4.066,0a1.378,1.378,0,0,1-1.4-.785c-1.225-2.121-2.486-4.241-3.743-6.362-.207-.35-.451-.673-.811-1.209v8.281h-5.7c-.265-.891-.35-14.9-.074-16.917h2.953c1,0,2.121-.239,2.857.186s1.119,1.532,1.59,2.359c.922,1.521,1.818,3.059,2.735,4.586.186.313.408.6.615.9Z" transform="translate(0 -21.566)" fill="#c1c1c1"/><path d="M152.822,80.162c-.106.345-.159.588-.254.816-.477,1.172-.97,2.338-1.495,3.589-1.336-.684-2.576-1.5-4.093-1.172-.286.064-.53.339-.981.641a7.376,7.376,0,0,0,1.23.854,11.388,11.388,0,0,0,1.824.53,5.038,5.038,0,0,1,3.043,8.191,6.764,6.764,0,0,1-4.31,2.688,12.267,12.267,0,0,1-8.636-1.792l1.908-4.7a14.315,14.315,0,0,0,1.834,1.007,11.134,11.134,0,0,0,2.539.663,1.309,1.309,0,0,0,1.087-.626c.228-.53-.345-.758-.774-.949a3.149,3.149,0,0,0-.477-.159c-.329-.085-.657-.17-.986-.244-1.988-.429-3.631-1.309-4.071-3.483a5.683,5.683,0,0,1,1.961-5.831,7.024,7.024,0,0,1,3.965-1.527A10.878,10.878,0,0,1,152.822,80.162Z" transform="translate(-44.844 -21.239)" fill="#c1c1c1"/><path d="M181.328,85.657c-.61-.4-.981-.663-1.373-.9a4,4,0,0,0-3.038-.53,3.274,3.274,0,0,0-2.391,4.034,2.863,2.863,0,0,0,3.419,2.449,19.561,19.561,0,0,0,3.372-1.182v3.981c0,.127-.027.254-.032.382-.1,1.983-.09,2.046-1.993,2.348-3.6.573-6.844-.138-9.256-3.122a9.412,9.412,0,0,1-.588-10.407,9.1,9.1,0,0,1,9.182-4.1c2.7.435,2.7.435,2.7,3.149Z" transform="translate(-58.475 -21.189)" fill="#c1c1c1"/><path d="M295.169,126h-1.548l-2.4-3.79c-.239,1.41-.429,2.55-.626,3.711H289.21c.361-2.836.721-5.641,1.1-8.551,1.06,0,2.067-.069,3.054,0a1.967,1.967,0,0,1,1.537,1.182c.1.18.2.355.3.53v1.272a3.128,3.128,0,0,1-2.306,1.919L295.2,125.7Zm-3.918-4.877c.981.127,1.686.058,2.174-.679a1.023,1.023,0,0,0,0-1.288,1.527,1.527,0,0,0-1.824-.435Z" transform="translate(-115.352 -39.439)" fill="#c1c1c1"/><path d="M199.808,125.9H198.34l2.778-8.678a10.024,10.024,0,0,1,1.453,3.144c.419,1.023.753,2.02,1.182,3.181l4.215-6.24a2.74,2.74,0,0,1,.371,1.447c0,.636,0,1.272.037,1.9.069,1.474.154,2.942.228,4.411v.816h-1.362c-.217-1.553,0-3.149-.175-4.925L203.594,126a3.975,3.975,0,0,1-.493-.694c-.557-1.357-1.087-2.73-1.665-4.193A47.977,47.977,0,0,0,199.808,125.9Z" transform="translate(-72.656 -39.382)" fill="#c1c1c1"/><path d="M240.536,126.2l-2.121-5.3c-.557,1.829-1.06,3.393-1.527,4.983H235.5c.843-2.91,1.781-5.71,2.773-8.7a17.345,17.345,0,0,1,1.373,3.213c.435,1.007.811,2.121,1.235,3.181a65.226,65.226,0,0,1,4.209-6.07,44.8,44.8,0,0,1,.467,8.334h-1.389v-4.511l-.217-.058Z" transform="translate(-90.116 -39.363)" fill="#c1c1c1"/><path d="M263.983,121.483a2.456,2.456,0,0,1-1.453,4.5H259.1c.392-2.895.779-5.736,1.172-8.625h2.9a1.882,1.882,0,0,1,1.813,1.156,2.173,2.173,0,0,1-.3,2.359A5,5,0,0,1,263.983,121.483Zm-2.9.747-.265,2.444c2.121.376,3.234-.355,2.651-2.057A2.927,2.927,0,0,0,261.083,122.231Zm.175-1.394a2.947,2.947,0,0,0,2.009-.254,1.018,1.018,0,0,0,.53-1.166.949.949,0,0,0-.864-.79c-.445-.042-.9,0-1.336,0Z" transform="translate(-101.205 -39.446)" fill="#c1c1c1"/><path d="M224.409,118.625l-.122,1.983c1.06.249,2.121,0,3.234.159v1.187c-1.119.4-2.28-.026-3.5.3-.058.371-.133.769-.191,1.172s-.1.811-.159,1.294h3.409l-.064,1.219H222.05c.265-2.868.721-5.678,1.06-8.546h4.819c.3.493-.032.811-.228,1.214Z" transform="translate(-83.796 -39.462)" fill="#c1c1c1"/><path d="M275.569,117.46h4.9l-.18,1.156h-3.35l-.371,2.121h3.573l-.345,1.4h-3.361l-.387,2.651H279.4c.1.159.138.2.133.223-.08.323-.164.641-.26,1H274.45C274.826,123.143,275.192,120.333,275.569,117.46Z" transform="translate(-108.417 -39.495)" fill="#c1c1c1"/></g></svg>