<svg xmlns="http://www.w3.org/2000/svg" width="177.687" height="65" viewBox="0 0 177.687 65"><g transform="translate(0.5 0)"><text transform="translate(67.187 16)" fill="#c1c1c1" font-size="15" font-family="SegoeUI, Segoe UI"><tspan x="0" y="0" xml:space="preserve">On call support  </tspan><tspan font-size="39" font-family="SegoeUI-Bold, Segoe UI" font-weight="700"><tspan x="0" y="39">24/7</tspan></tspan></text><g transform="translate(0 4.172)"><path d="M336.912,289.8h-2.67V272.9a.89.89,0,0,0-1.619-.51l-12.459,17.8a.89.89,0,0,0,.729,1.4h11.569v2.67a.89.89,0,1,0,1.78,0v-2.67h2.67a.89.89,0,0,0,0-1.78Zm-4.45,0H322.6l9.86-14.086Z" transform="translate(-284.406 -241.748)" fill="#c1c1c1"/><path d="M333.352,295.644a1.392,1.392,0,0,1-1.39-1.39v-2.17H320.893a1.39,1.39,0,0,1-1.139-2.186l12.459-17.8a1.39,1.39,0,0,1,2.528.8V289.3h2.17a1.39,1.39,0,0,1,0,2.78h-2.17v2.17A1.392,1.392,0,0,1,333.352,295.644Zm0-23.138a.39.39,0,0,0-.319.166l-12.459,17.8a.39.39,0,0,0,.32.613h12.069v3.17a.39.39,0,1,0,.78,0v-3.17h3.17a.39.39,0,0,0,0-.78h-3.17V272.9A.39.39,0,0,0,333.352,272.506Zm-.39,17.8H321.641l11.321-16.172Zm-9.4-1h8.4v-12Z" transform="translate(-284.406 -241.748)" fill="#c1c1c1"/><path d="M221.349,293.346H210.813l9.8-11.534a.96.96,0,0,0,.062-.083,6.19,6.19,0,0,0-1.4-8.4A7.119,7.119,0,0,0,208,279.107a.89.89,0,0,0,1.78,0,5.34,5.34,0,0,1,8.454-4.338,4.394,4.394,0,0,1,.979,5.931l-11,12.959a.89.89,0,0,0,.678,1.466h12.459a.89.89,0,1,0,0-1.78Z" transform="translate(-184.862 -241.73)" fill="#c1c1c1"/><path d="M221.349,295.626H208.89a1.39,1.39,0,0,1-1.059-2.289L218.813,280.4a3.9,3.9,0,0,0-.877-5.229,4.84,4.84,0,0,0-7.656,3.936,1.39,1.39,0,0,1-2.78,0,7.619,7.619,0,0,1,12.065-6.189l.01.007a6.689,6.689,0,0,1,1.51,9.083,1.454,1.454,0,0,1-.094.124l-9.1,10.713h9.455a1.39,1.39,0,1,1,0,2.78Zm-6.23-22.359a5.806,5.806,0,0,1,3.407,1.1l.012.009a4.9,4.9,0,0,1,1.09,6.606l-.016.024-.018.022-11,12.959a.39.39,0,0,0,.3.642h12.459a.39.39,0,1,0,0-.78H209.732l10.495-12.358a.446.446,0,0,0,.028-.038,5.69,5.69,0,0,0-1.279-7.724,6.572,6.572,0,0,0-3.852-1.241,6.62,6.62,0,0,0-6.625,6.621.39.39,0,0,0,.78,0,5.84,5.84,0,0,1,5.839-5.84Z" transform="translate(-184.862 -241.73)" fill="#c1c1c1"/><path d="M24.048,47.183a.89.89,0,0,0-.856-.923h0A22.222,22.222,0,0,1,1.811,24.918H5.34a.89.89,0,0,0,0-1.78H1.811A22.2,22.2,0,0,1,23.138,1.812V4.45a.89.89,0,0,0,1.78,0V1.812A22.211,22.211,0,0,1,46.234,22.725l-3.471-3.471A.89.89,0,0,0,41.5,20.513l4.968,4.968a.875.875,0,0,0,.351.255,1.02,1.02,0,0,0,.106.026.881.881,0,0,0,.189.045h.051a.857.857,0,0,0,.2-.039.837.837,0,0,0,.109-.02.877.877,0,0,0,.321-.2l5.035-5.033a.89.89,0,0,0-1.258-1.258l-3.557,3.554A23.991,23.991,0,0,0,24.091.012C24.069.012,24.05,0,24.028,0s-.041.012-.063.012A23.986,23.986,0,0,0,.012,23.965c0,.022-.012.041-.012.063s.012.041.012.063A24.006,24.006,0,0,0,23.126,48.04h.033A.89.89,0,0,0,24.048,47.183Z" fill="#c1c1c1"/><path d="M23.159,48.54h-.052A24.506,24.506,0,0,1-.487,24.147.569.569,0,0,1-.5,24.028a.564.564,0,0,1,.013-.119,24.466,24.466,0,0,1,24.4-24.4A.569.569,0,0,1,24.028-.5a.571.571,0,0,1,.119.013,24.48,24.48,0,0,1,24.29,22.17l2.79-2.788a1.39,1.39,0,0,1,1.965,1.965l-.006.006L48.151,25.9a1.39,1.39,0,0,1-.507.319l-.042.013c-.041.011-.083.019-.126.026a1.359,1.359,0,0,1-.27.048h-.12l-.031,0a1.382,1.382,0,0,1-.257-.058c-.04-.009-.079-.019-.119-.031l-.041-.014a1.379,1.379,0,0,1-.534-.381L41.145,20.86A1.39,1.39,0,0,1,43.111,18.9l.006.006,2.5,2.5a21.619,21.619,0,0,0-20.2-19.062V4.45a1.39,1.39,0,1,1-2.78,0V2.338a21.806,21.806,0,0,0-20.3,20.3h3a1.39,1.39,0,0,1,0,2.78h-3A21.822,21.822,0,0,0,23.2,45.761h.01a1.39,1.39,0,0,1-.052,2.779Zm-.024-1h.024a.39.39,0,0,0,.018-.779h0A22.722,22.722,0,0,1,1.311,24.938l-.02-.519H5.34a.39.39,0,0,0,0-.78H1.291l.02-.519A22.695,22.695,0,0,1,23.119,1.312l.519-.02V4.45a.39.39,0,1,0,.78,0V1.292l.519.02A22.711,22.711,0,0,1,46.733,22.7l.076,1.311-4.4-4.4a.39.39,0,0,0-.551.551l5,5a.376.376,0,0,0,.131.1l.032.007.04.007.038.014a.384.384,0,0,0,.053.015.357.357,0,0,0,.062-.014l.046-.015.048-.006.023,0a.379.379,0,0,0,.117-.078l5.029-5.027a.39.39,0,0,0-.551-.551l-4.35,4.347-.056-1.125A23.48,23.48,0,0,0,24.091.512h-.019l-.043,0-.043,0h-.019A23.526,23.526,0,0,0,.512,23.966a.558.558,0,0,1,0,.064c0,.013,0,.027,0,.042v.019A23.437,23.437,0,0,0,23.135,47.54Z" fill="#c1c1c1"/><path d="M170.658,106.438a.89.89,0,0,0-1.258,0L159.837,116a2.787,2.787,0,0,0-2.27,0l-4.528-4.528a.89.89,0,0,0-1.258,1.258l4.519,4.519a2.665,2.665,0,1,0,4.8,0l9.554-9.554A.89.89,0,0,0,170.658,106.438Zm-11.327,12.585h0a.91.91,0,0,1-1.258,0,.89.89,0,1,1,1.259,0Z" transform="translate(-134.674 -94.366)" fill="#c1c1c1"/><path d="M170.029,105.678a1.39,1.39,0,0,1,.983,2.372l-9.318,9.318a3.164,3.164,0,1,1-5.983,0l-4.29-4.29a1.39,1.39,0,0,1,1.965-1.965l.006.006,4.3,4.3a3.293,3.293,0,0,1,2.021,0l9.334-9.333A1.381,1.381,0,0,1,170.029,105.678ZM158.7,120.564a2.16,2.16,0,0,0,1.951-3.094l-.156-.321,9.806-9.806a.39.39,0,0,0-.551-.551l-9.806,9.805-.314-.14a2.287,2.287,0,0,0-1.863,0l-.314.14-4.767-4.767a.39.39,0,0,0-.551.551l4.765,4.766-.152.319a2.165,2.165,0,0,0,1.953,3.1Zm0-3.56a1.39,1.39,0,0,1,1,2.353l-.005.007-.022.021a1.41,1.41,0,0,1-1.949,0l-.008-.008A1.39,1.39,0,0,1,158.7,117Zm.28,1.662a.39.39,0,1,0-.559,0,.41.41,0,0,0,.559,0Z" transform="translate(-134.674 -94.366)" fill="#c1c1c1"/></g></g></svg>