<svg xmlns="http://www.w3.org/2000/svg" width="198.426" height="65" viewBox="0 0 198.426 65"><g transform="translate(0 0)"><g transform="translate(0 4.172)"><path d="M52.9,5.21H28.39V.786A.786.786,0,0,0,27.6,0H22.7a.786.786,0,0,0-.786.786V5.21H12.287A.786.786,0,0,0,11.5,6v6.761a5.986,5.986,0,0,0-1.425,1.059V11.505c0-1.426-1.418-2.6-3.528-2.985V6.813a.786.786,0,0,0-.786-.786A6.019,6.019,0,0,0,1.878,7.5,5.364,5.364,0,0,0,0,11.6V14.9a.787.787,0,0,0,1.573,0V11.6a4.084,4.084,0,0,1,3.4-3.935V37.832a6.014,6.014,0,0,0-3.4,1.518c0-1.071,0-20.275,0-20.275a.787.787,0,0,0-1.573,0V43.5a.784.784,0,0,0,.012.129c.077,2.307,2.211,4.03,5.026,4.03a6.018,6.018,0,0,0,3.481-1.027v2.891c0,2.657,2.658,4.159,5.039,4.159,2.527,0,5.037-1.424,5.037-4.16l0-11.118h22.4L24.67,52.3a.792.792,0,0,0,.51,1.385H48.862a.786.786,0,0,0,.786-.786V49.082a.787.787,0,0,0-1.573,0v3.028H27.317L48.076,34.436V44.744a.787.787,0,0,0,1.573,0V38.405H52.9a.786.786,0,0,0,.786-.786V6A.786.786,0,0,0,52.9,5.21Zm-.786,1.573V25.856H33.694V6.783ZM26.817,1.573V21.7H23.484v-2.01h.571a.787.787,0,0,0,0-1.573h-.571V16.055h1.3a.787.787,0,0,0,0-1.573h-1.3V12.422h.571a.786.786,0,0,0,0-1.573h-.571V8.788h1.3a.787.787,0,0,0,0-1.573h-1.3V5.155h.571a.787.787,0,0,0,0-1.573h-.571V1.573Zm-14.4,12.454a4.143,4.143,0,0,1,1.068-.338l0,30.166a6,6,0,0,0-3.4,1.518c0-1.056,0-1.874,0-1.9l0-25.853a4.073,4.073,0,0,1,2.334-3.6Zm4.6,33.2-.08-.045a7.129,7.129,0,0,0-3.322-.78v-.978a4.6,4.6,0,0,1,.636-.048.786.786,0,0,0,.811-.786l0-28.436c1.042.258,1.955.786,1.955,1.371ZM8.5,11.505V41.2a7,7,0,0,0-3.4-.815V39.4a4.556,4.556,0,0,1,.636-.048.786.786,0,0,0,.811-.786V10.128c1.2.287,1.955.881,1.955,1.377Zm0,32.369c0,1.2-1.587,2.214-3.465,2.214-1.971,0-3.457-1.112-3.457-2.587a3.809,3.809,0,0,1,1.947-3.622V41.2a.786.786,0,0,0,.86.783,5.793,5.793,0,0,1,3.278.556A1.331,1.331,0,0,1,8.5,43.874Zm5.054,8.237h0c-1.97,0-3.457-1.112-3.457-2.586A3.809,3.809,0,0,1,12.046,45.9v1.322a.786.786,0,0,0,.86.783c1.334-.125,4.179.089,4.115,1.889,0,1.2-1.586,2.215-3.465,2.215ZM18.59,17.527c0-1.416-1.423-2.593-3.528-2.984V12.835a.786.786,0,0,0-.786-.786,5.7,5.7,0,0,0-1.2.132v-5.4h8.837v15.7a.786.786,0,0,0,.786.786H27.6a.786.786,0,0,0,.786-.786V6.783h3.731V36.832H18.593Zm30.6,14.493a.786.786,0,0,0-.84.115l-5.517,4.7H33.694v-9.4H52.111v9.4H49.649v-4.1A.787.787,0,0,0,49.192,32.02Z" transform="translate(0)" fill="#c1c1c1"/><path d="M350.625,108.8h7.246a.794.794,0,0,0,.557-.231l3.623-3.62a.787.787,0,0,0,.231-.556V97.161a.8.8,0,0,0-.786-.786h-7.247a.786.786,0,0,0-.556.23l-3.621,3.618a.8.8,0,0,0-.231.557v7.236A.786.786,0,0,0,350.625,108.8Zm.786-7.236h5.673v5.664h-5.673Zm7.246,4.553v-5.013l2.05-2.049v5.012Zm-4.085-8.172h5.021l-2.049,2.047h-5.021Z" transform="translate(-313.158 -86.27)" fill="#c1c1c1"/><path d="M364.057,314.087h-2.606a.787.787,0,0,0,0,1.573h2.606A.787.787,0,0,0,364.057,314.087Z" transform="translate(-322.871 -281.155)" fill="#c1c1c1"/><path d="M368.128,284.242h-6.677a.787.787,0,0,0,0,1.573h6.677A.787.787,0,0,0,368.128,284.242Z" transform="translate(-322.871 -254.439)" fill="#c1c1c1"/><path d="M341.366,383.708l-9.495,8.084a.792.792,0,0,0,.51,1.385h9.495a.786.786,0,0,0,.786-.786v-8.084A.8.8,0,0,0,341.366,383.708Zm-.277,7.9h-6.572l6.572-5.6Z" transform="translate(-296.833 -343.308)" fill="#c1c1c1"/></g><text transform="translate(65.426 16)" fill="#c1c1c1" font-size="15" font-family="SegoeUI, Segoe UI"><tspan x="0" y="0" xml:space="preserve">Successful projects  </tspan><tspan font-size="39" font-family="SegoeUI-Bold, Segoe UI" font-weight="700"><tspan x="0" y="39">500+</tspan></tspan></text></g></svg>