<svg xmlns="http://www.w3.org/2000/svg" width="268" height="57.439" viewBox="0 0 268 57.439"><path d="M526,411.352V400.09a2.7,2.7,0,0,1,5.4,0V411.35a8.328,8.328,0,0,0,.674,3.336,8.7,8.7,0,0,0,4.589,4.589,8.3,8.3,0,0,0,3.334.676,8.547,8.547,0,0,0,6.086-2.525,9.2,9.2,0,0,0,1.852-2.738,8.115,8.115,0,0,0,.693-3.336V400.09a2.642,2.642,0,0,1,.767-1.909,2.549,2.549,0,0,1,1.9-.788,2.7,2.7,0,0,1,2.7,2.7V411.35a13.586,13.586,0,0,1-1.1,5.438,14.358,14.358,0,0,1-2.99,4.458,13.839,13.839,0,0,1-4.454,3.006,14.009,14.009,0,0,1-18.354-7.46,13.587,13.587,0,0,1-1.1-5.441" transform="translate(-459.139 -391.875)" fill="#303030"/><path d="M765.619,421.038a2.789,2.789,0,0,1,.767,1.926,2.571,2.571,0,0,1-.767,1.89,2.493,2.493,0,0,1-.906.6,2.849,2.849,0,0,1-.986.175,2.94,2.94,0,0,1-1.021-.175,2.437,2.437,0,0,1-.9-.6l-8.061-8.058h-9.06v6.091a2.635,2.635,0,0,1-.767,1.909,2.534,2.534,0,0,1-1.889.793,2.7,2.7,0,0,1-2.7-2.7V400.367a2.573,2.573,0,0,1,.767-1.889,2.637,2.637,0,0,1,1.929-.81h14.846a9.177,9.177,0,0,1,3.7.753,9.57,9.57,0,0,1,5.4,11.624,9.848,9.848,0,0,1-1.2,2.507,9.355,9.355,0,0,1-1.85,2.044,9.586,9.586,0,0,1-2.353,1.427ZM744.68,411.4h12.185a3.986,3.986,0,0,0,1.6-.327,4.47,4.47,0,0,0,1.329-.889,4.036,4.036,0,0,0,1.227-2.95,4.118,4.118,0,0,0-.328-1.619,4.012,4.012,0,0,0-.906-1.331,4.461,4.461,0,0,0-1.329-.886,3.986,3.986,0,0,0-1.6-.328H744.68Z" transform="translate(-639.762 -392.111)" fill="#303030"/><path d="M1155.931,424.157a7.954,7.954,0,0,1-3.01-3.663,8.2,8.2,0,0,1-.655-3.239v-16.89a2.628,2.628,0,0,1,.767-1.907,2.534,2.534,0,0,1,1.89-.791,2.7,2.7,0,0,1,2.7,2.7v16.89a3.114,3.114,0,0,0,.5,1.659,2.537,2.537,0,0,0,1.061.944,3.119,3.119,0,0,0,1.369.328h13.226a2.7,2.7,0,1,1,0,5.4h-13.226a7.814,7.814,0,0,1-2.468-.383,9.361,9.361,0,0,1-2.159-1.044" transform="translate(-989.395 -392.11)" fill="#303030"/><path d="M1334.85,422.529V399.967a2.709,2.709,0,0,1,2.707-2.709,2.562,2.562,0,0,1,1.9.793,2.652,2.652,0,0,1,.767,1.916v22.562a2.644,2.644,0,0,1-.767,1.915,2.54,2.54,0,0,1-1.9.794,2.712,2.712,0,0,1-2.707-2.709" transform="translate(-1143.987 -391.763)" fill="#303030"/><path d="M1427.568,422.4v-16.3l-7,7a2.547,2.547,0,0,1-1.866.779,2.607,2.607,0,0,1-1.909-.779l-7-7v16.3a2.655,2.655,0,0,1-4.514,1.887,2.52,2.52,0,0,1-.779-1.887V399.673a2.519,2.519,0,0,1,.446-1.438,2.65,2.65,0,0,1,1.188-.975,2.522,2.522,0,0,1,1.05-.193,2.487,2.487,0,0,1,1.838.737l9.689,9.689,9.648-9.689a2.6,2.6,0,0,1,1.907-.777,2.678,2.678,0,0,1,.97.2,2.453,2.453,0,0,1,1.21.992,2.678,2.678,0,0,1,.428,1.458V422.4a2.656,2.656,0,0,1-4.515,1.887,2.525,2.525,0,0,1-.777-1.887" transform="translate(-1202.955 -391.567)" fill="#303030"/><path d="M1627,417.274a3.111,3.111,0,0,0,.5,1.657,2.508,2.508,0,0,0,1.059.946,3.12,3.12,0,0,0,1.369.328h13.235a2.7,2.7,0,0,1,0,5.4h-13.227a7.789,7.789,0,0,1-2.468-.385,9.351,9.351,0,0,1-2.16-1.044,7.925,7.925,0,0,1-3.006-3.659,8.178,8.178,0,0,1-.655-3.241V406.015a8.159,8.159,0,0,1,.655-3.238,7.948,7.948,0,0,1,3-3.661,9.269,9.269,0,0,1,2.16-1.041,7.7,7.7,0,0,1,2.468-.386h13.235a2.7,2.7,0,0,1,0,5.4h-13.227a3.119,3.119,0,0,0-1.369.328,2.5,2.5,0,0,0-1.059.944,3.116,3.116,0,0,0-.5,1.657v2.971h16a2.64,2.64,0,0,1,1.909.767,2.536,2.536,0,0,1,.79,1.892,2.7,2.7,0,0,1-2.7,2.7H1627Z" transform="translate(-1386.818 -392.128)" fill="#303030"/><path d="M968.434,411.331a13.82,13.82,0,0,1-4.086,9.893,14.066,14.066,0,0,1-15.34,2.97,14.412,14.412,0,0,1-4.458-2.97,13.742,13.742,0,0,1-4.1-9.893,13.57,13.57,0,0,1,1.1-5.439,14,14,0,0,1,18.377-7.437,13.87,13.87,0,0,1,4.446,3.022,14.372,14.372,0,0,1,2.971,4.446,13.507,13.507,0,0,1,1.1,5.409m-5.688-.017a7.973,7.973,0,0,0-.317-2.183,8.569,8.569,0,0,0-.972-2.186A8.264,8.264,0,0,0,959.771,405a8.53,8.53,0,0,0-2.438-1.446,2.741,2.741,0,0,0-.6-.193q-.389-.087-.811-.153c-.282-.046-.561-.087-.831-.124a5.673,5.673,0,0,0-.655-.054,8.412,8.412,0,0,0-2.224.32,8.087,8.087,0,0,0-2.245,1,8.418,8.418,0,0,0-1.959,1.746,8.218,8.218,0,0,0-1.415,2.528,9.947,9.947,0,0,0-.317,1.288,7.576,7.576,0,0,0-.141,1.392,7.954,7.954,0,0,0,.653,3.174,8.522,8.522,0,0,0,1.768,2.645,8.364,8.364,0,0,0,2.631,1.8,8.2,8.2,0,0,0,6.448.018,8.726,8.726,0,0,0,2.649-1.78,8.264,8.264,0,0,0,1.8-2.629,7.976,7.976,0,0,0,.653-3.219" transform="translate(-810.05 -391.833)" fill="#303030"/><path d="M1188.892,598.978h1.392a5.031,5.031,0,0,1,1.711.232,4.676,4.676,0,0,1,2.4,1.777,4.972,4.972,0,0,1,.819,2.645,4.63,4.63,0,0,1-1.142,3.046,5.229,5.229,0,0,1-.681.635,5.343,5.343,0,0,1-.92.549,4.1,4.1,0,0,1-.92.3,5.162,5.162,0,0,1-1.256.11h-1.38a.6.6,0,0,1-.613-.35.79.79,0,0,1-.046-.307v-7.98a.6.6,0,0,1,.349-.613.79.79,0,0,1,.307-.046m.471,1.686v5.909a.537.537,0,0,0,.307.507.481.481,0,0,0,.251.057h.575a3.511,3.511,0,0,0,2.76-1.268,3.474,3.474,0,0,0,.809-2.179v-.143a3.487,3.487,0,0,0-.7-2.048,3.708,3.708,0,0,0-.734-.722,3.526,3.526,0,0,0-2.125-.676h-.59a.549.549,0,0,0-.52.32.57.57,0,0,0-.046.242" transform="translate(-1019.865 -562.555)" fill="#303030"/><path d="M1260.144,616.31h.109a3.28,3.28,0,0,1,2.606,1.334,3.339,3.339,0,0,1-.294,4.325,3.418,3.418,0,0,1-2.313.983h-.109a3.322,3.322,0,0,1-1.993-.705,3.383,3.383,0,0,1-1.269-2.62,3.32,3.32,0,0,1,.856-2.223,3.1,3.1,0,0,1,.636-.543,3.279,3.279,0,0,1,1.775-.55M1258,619.634v.046a2.166,2.166,0,0,0,2.146,2.146h.083a2.172,2.172,0,0,0,2.146-2.146v-.044a2.178,2.178,0,0,0-.681-1.6,2.221,2.221,0,0,0-.767-.472,2.185,2.185,0,0,0-.679-.124h-.124a2.182,2.182,0,0,0-1.115.337,2.629,2.629,0,0,0-.486.414,2.183,2.183,0,0,0-.429.766,1.973,1.973,0,0,0-.1.673" transform="translate(-1077.97 -577.233)" fill="#303030"/><path d="M1362.418,598.975a.572.572,0,0,1,.518.349.937.937,0,0,1,.04.307V607.6a.593.593,0,0,1-.221.538.535.535,0,0,1-.337.123.581.581,0,0,1-.518-.342.9.9,0,0,1-.044-.319v-7.972a.591.591,0,0,1,.219-.537.548.548,0,0,1,.344-.124" transform="translate(-1166.852 -562.552)" fill="#303030"/><path d="M1391.484,599h6.779a.576.576,0,0,1,.613.371.6.6,0,0,1,.035.193.542.542,0,0,1-.414.538.811.811,0,0,1-.241.025h-2.269a.542.542,0,0,0-.531.389.348.348,0,0,0-.027.117v6.986a.606.606,0,0,1-.362.641.73.73,0,0,1-.207.04.558.558,0,0,1-.506-.336.9.9,0,0,1-.052-.345v-6.933a.53.53,0,0,0-.362-.518.435.435,0,0,0-.2-.041h-2.255a.591.591,0,0,1-.622-.37.637.637,0,0,1-.032-.193.544.544,0,0,1,.414-.538.807.807,0,0,1,.241-.026" transform="translate(-1191.384 -562.573)" fill="#303030"/><path d="M1506.726,599a2.275,2.275,0,0,1,1.587.693,2.193,2.193,0,0,1,.486.779.545.545,0,0,1,.046.231.568.568,0,0,1-.39.54.833.833,0,0,1-.176.026.583.583,0,0,1-.438-.215,3.777,3.777,0,0,1-.21-.409,1.135,1.135,0,0,0-1.858-.044,1.227,1.227,0,0,0-.207.648,1.114,1.114,0,0,0,.687,1.05q1.38.515,1.749.688a3.134,3.134,0,0,1,.711.543,2.661,2.661,0,0,1,.483.693,2.711,2.711,0,0,1,.307,1.227,2.871,2.871,0,0,1-.642,1.827,3.128,3.128,0,0,1-.492.474,2.838,2.838,0,0,1-1.679.556,2.794,2.794,0,0,1-2.146-.978,2.748,2.748,0,0,1-.613-1.207.19.19,0,0,0,0-.07.575.575,0,0,1,.35-.524.95.95,0,0,1,.214-.046.591.591,0,0,1,.518.319,1.828,1.828,0,0,0,.59.983,1.65,1.65,0,0,0,1.023.385h.1a1.64,1.64,0,0,0,1.2-.553,1.668,1.668,0,0,0-.089-2.35,1.761,1.761,0,0,0-.668-.394q-1.227-.469-1.509-.586a2.721,2.721,0,0,1-.526-.376,2.308,2.308,0,0,1-.514-.733,2.352,2.352,0,0,1-.193-.9,2.255,2.255,0,0,1,2.3-2.269" transform="translate(-1287.146 -562.577)" fill="#303030"/><path d="M1566.04,616.379a.558.558,0,0,1,.482.274.286.286,0,0,0,.233.121,2.012,2.012,0,0,0,.428-.153,2.745,2.745,0,0,1,.886-.153,2.581,2.581,0,0,1,1.654.6q.207.216.322.216h.028q.123,0,.428-.3a2.63,2.63,0,0,1,1.594-.518,2.554,2.554,0,0,1,2.249,1.366,2.376,2.376,0,0,1,.287.98v3.662a.537.537,0,0,1-.345.492.572.572,0,0,1-.2.046.549.549,0,0,1-.5-.336.85.85,0,0,1-.052-.325V618.8a1.331,1.331,0,0,0-.3-.678,1.449,1.449,0,0,0-1.167-.566,1.473,1.473,0,0,0-1.12.524,1.864,1.864,0,0,0-.253.428,1.386,1.386,0,0,0-.072.291v3.547a.606.606,0,0,1-.336.613.778.778,0,0,1-.215.054.55.55,0,0,1-.512-.336.876.876,0,0,1-.054-.325v-3.571a1.328,1.328,0,0,0-.25-.625,1.491,1.491,0,0,0-1.194-.595,1.472,1.472,0,0,0-1.227.656,1.307,1.307,0,0,0-.227.6v3.534a.588.588,0,0,1-.337.613.614.614,0,0,1-.221.054.567.567,0,0,1-.484-.294.816.816,0,0,1-.066-.366v-5.329a.57.57,0,0,1,.23-.543.476.476,0,0,1,.32-.112" transform="translate(-1339.271 -577.291)" fill="#303030"/><path d="M1651.948,616.349h1.669a2.219,2.219,0,0,1,1.44.543,2.259,2.259,0,0,1,.428.506,2.2,2.2,0,0,1,.339,1.151v3.883a.561.561,0,0,1-.261.46.6.6,0,0,1-.293.086.545.545,0,0,1-.523-.345.306.306,0,0,0-.291-.233,1.108,1.108,0,0,0-.391.189,3.221,3.221,0,0,1-.575.239,3.471,3.471,0,0,1-.92.153h-.084a2.179,2.179,0,0,1-1.556-.668,2.44,2.44,0,0,1-.388-.544,2.2,2.2,0,0,1-.233-.947v-.07a2.174,2.174,0,0,1,2.158-2.169h1.84a.329.329,0,0,0,.307-.124.242.242,0,0,0,.052-.144v-.032a.933.933,0,0,0-.241-.46,1.072,1.072,0,0,0-.409-.282,1.354,1.354,0,0,0-.584-.084h-1.484a.563.563,0,0,1-.417-.215.536.536,0,0,1-.115-.307v-.046a.55.55,0,0,1,.247-.46.54.54,0,0,1,.285-.087m-.532,4.431a1.107,1.107,0,0,0,.376.811,1.073,1.073,0,0,0,.661.265h.11a2.146,2.146,0,0,0,1.121-.343,2.2,2.2,0,0,0,.908-1.159c.038-.153.067-.273.084-.363v-.034a.278.278,0,0,0-.187-.251.525.525,0,0,0-.072,0h-1.964a1.074,1.074,0,0,0-.745.342,1.133,1.133,0,0,0-.291.739" transform="translate(-1411.084 -577.259)" fill="#303030"/><path d="M1711.99,616.35a.614.614,0,0,1,.44.221.323.323,0,0,0,.153.044h.02a1.01,1.01,0,0,0,.307-.109,2.408,2.408,0,0,1,.843-.153,2.367,2.367,0,0,1,1.514.561l.12.123c-.423.434-.645.65-.661.65a.271.271,0,0,1-.144.046.581.581,0,0,1-.291-.13,1.241,1.241,0,0,0-.555-.129,1.217,1.217,0,0,0-1.2,1.227v3.65a.582.582,0,0,1-.2.506.49.49,0,0,1-.328.135h-.06a.583.583,0,0,1-.225-.057.614.614,0,0,1-.276-.317.914.914,0,0,1-.029-.267v-5.36a.568.568,0,0,1,.187-.484.522.522,0,0,1,.382-.153" transform="translate(-1462.824 -577.267)" fill="#303030"/><path d="M1760.725,598.924h.052a.542.542,0,0,1,.46.29.712.712,0,0,1,.072.371V601.3a.274.274,0,0,0,.234.274h1.416c.009,0,.016,0,.016.011v.869a.325.325,0,0,1-.132.2.431.431,0,0,1-.225.046h-.739a.559.559,0,0,0-.526.323.581.581,0,0,0-.044.195v3.357a.547.547,0,0,0,.314.46.671.671,0,0,0,.2.046h.448c.012,0,.017,0,.017.012v1.1c0,.011,0,.015-.017.015h-.531a1.575,1.575,0,0,1-.839-.182,1.379,1.379,0,0,1-.649-.793,1.966,1.966,0,0,1-.07-.613v-7.052a.6.6,0,0,1,.215-.533.483.483,0,0,1,.323-.127" transform="translate(-1504.109 -562.501)" fill="#303030"/><path d="M1802.583,377.921a.209.209,0,0,1,0,.293.2.2,0,0,1-.153.06h-.658v1.516a.191.191,0,0,1-.058.144.2.2,0,0,1-.144.058.207.207,0,0,1-.209-.2v-1.516h-.656a.19.19,0,0,1-.142-.06.208.208,0,0,1,.142-.354h1.725a.21.21,0,0,1,.153.061" transform="translate(-1538.251 -375.339)" fill="#303030"/><path d="M1817.787,379.842v-1.226l-.53.529a.2.2,0,0,1-.285,0l-.53-.529v1.226a.2.2,0,0,1-.058.144.2.2,0,0,1-.144.057.2.2,0,0,1-.14-.057.186.186,0,0,1-.06-.144V378.12a.189.189,0,0,1,.034-.109.2.2,0,0,1,.307-.034l.733.736.731-.736a.21.21,0,0,1,.153-.058.194.194,0,0,1,.166.09.21.21,0,0,1,.032.11v1.722a.2.2,0,1,1-.4,0" transform="translate(-1551.406 -375.39)" fill="#303030"/><path d="M1796.782,369.334a3.422,3.422,0,1,1,3.422-3.42,3.422,3.422,0,0,1-3.422,3.42m0-6.493a3.066,3.066,0,1,0,3.066,3.066,3.066,3.066,0,0,0-3.066-3.066" transform="translate(-1532.204 -362.326)" fill="#303030"/><path d="M77.78.04V11.527L89.465.04Z" transform="translate(-65.856 -0.034)" fill="#3ba7de"/><path d="M77.78,11.527H89.458V.04Z" transform="translate(-65.856 -0.034)" fill="#4bc6ee"/><path d="M154,.04l11.668,11.487V.04Z" transform="translate(-130.391 -0.034)" fill="#1aa74f"/><path d="M153.95,11.527h11.694L153.95.04Z" transform="translate(-130.348 -0.034)" fill="#0e7646"/><path d="M77.78,74.97V86.456H89.465Z" transform="translate(-65.856 -63.476)" fill="#0c78b5"/><path d="M89.458,86.447V74.96H77.78Z" transform="translate(-65.856 -63.468)" fill="#4597d2"/><path d="M165.668,74.97V86.456H154Z" transform="translate(-130.391 -63.476)" fill="#56b856"/><path d="M153.95,86.447V74.96h11.694Z" transform="translate(-130.348 -63.468)" fill="#19aa4e"/><path d="M306.34,86.447h11.478V74.96Z" transform="translate(-259.375 -63.468)" fill="#815736"/><path d="M317.784,74.97H306.29V86.462Z" transform="translate(-259.333 -63.476)" fill="#b86d4a"/><path d="M306.34.05l11.478,11.487V.05Z" transform="translate(-259.375 -0.042)" fill="#865036"/><path d="M306.29,11.494h11.494L306.29,0Z" transform="translate(-259.333)" fill="#9a5b3e"/><path d="M306.34,236.3h11.478V224.81Z" transform="translate(-259.375 -190.345)" fill="#8e2a5d"/><path d="M317.784,224.81H306.29V236.3Z" transform="translate(-259.333 -190.345)" fill="#6a1f48"/><path d="M306.34,149.89h11.478v11.486Z" transform="translate(-259.375 -126.911)" fill="#9d6e48"/><path d="M317.784,161.334H306.29V149.84Z" transform="translate(-259.333 -126.868)" fill="#c08b5d"/><path d="M306.29,299.73v11.486l11.486-11.486Z" transform="translate(-259.333 -253.779)" fill="#c43880"/><path d="M77.78,161.367V149.88H89.465Z" transform="translate(-65.856 -126.902)" fill="#ed464a"/><path d="M89.458,149.89v11.486H77.78Z" transform="translate(-65.856 -126.911)" fill="#b92f33"/><path d="M165.668,161.367V149.88H154Z" transform="translate(-130.391 -126.902)" fill="#9ac944"/><path d="M153.95,149.89v11.486h11.694Z" transform="translate(-130.348 -126.911)" fill="#c8da48"/><path d="M1.61,311.216H13.3L1.61,299.73Z" transform="translate(-1.363 -253.779)" fill="#611620"/><path d="M1.62,299.73,13.3,311.216V299.73Z" transform="translate(-1.372 -253.779)" fill="#7a2b37"/><path d="M77.84,311.216H89.51V299.73Z" transform="translate(-65.906 -253.779)" fill="#e2a125"/><path d="M77.78,299.73v11.486L89.473,299.73Z" transform="translate(-65.856 -253.779)" fill="#fad008"/><path d="M229.96,161.367h11.7V149.88Z" transform="translate(-194.705 -126.902)" fill="#bac960"/><path d="M89.474,236.283V224.8H77.8Z" transform="translate(-65.873 -190.336)" fill="#f48b57"/><path d="M77.78,224.78v11.49H89.468Z" transform="translate(-65.856 -190.319)" fill="#d36e38"/><path d="M1.61,236.283V224.8H13.292Z" transform="translate(-1.363 -190.336)" fill="#ea3746"/><path d="M13.262,224.78v11.49H1.58Z" transform="translate(-1.338 -190.319)" fill="#8d232b"/><path d="M241.814,236.283V224.8H230.14Z" transform="translate(-194.858 -190.336)" fill="#589241"/><path d="M230.11,224.78v11.49H241.8Z" transform="translate(-194.832 -190.319)" fill="#4f7737"/><path d="M153.95,236.283V224.8h11.681Z" transform="translate(-130.348 -190.336)" fill="#7b903a"/><path d="M165.609,224.78v11.49H153.93Z" transform="translate(-130.331 -190.319)" fill="#619e43"/><path d="M13.3,160.318H1.62V148.64Z" transform="translate(-1.372 -125.852)" fill="#cf2831"/><path d="M89.89,384.254V361.63l12.019.009v21.373a18.261,18.261,0,0,0,3.6,10.371,9.5,9.5,0,0,0,7.848,3.886c1.984,0,5.479.163,9.366-5.49,1.84-2.68,2.439-6.891,2.439-8.866V361.63h11.668v22.624a22.611,22.611,0,0,1-1.84,9.077,23.953,23.953,0,0,1-5.012,7.432,23.335,23.335,0,0,1-7.469,5.022,23.072,23.072,0,0,1-9.149,1.84,22.833,22.833,0,0,1-9.119-1.84,23.649,23.649,0,0,1-12.511-12.455,22.585,22.585,0,0,1-1.84-9.077" transform="translate(-89.89 -361.598)" fill="#fff"/><path d="M153.95,299.73v11.487h11.685Z" transform="translate(-130.348 -253.779)" fill="#ef5e24"/><path d="M165.634,311.207V299.72H153.96Z" transform="translate(-130.357 -253.77)" fill="#f17233"/><path d="M241.848,299.73v11.487H230.18Z" transform="translate(-194.891 -253.779)" fill="#d34627"/><path d="M230.11,311.207V299.72H241.8Z" transform="translate(-194.832 -253.77)" fill="#ef5d38"/></svg>